<?xml version="1.0" encoding="UTF-8" standalone="no"?>
<!DOCTYPE svg PUBLIC "-//W3C//DTD SVG 1.1//EN"
 "http://www.w3.org/Graphics/SVG/1.1/DTD/svg11.dtd">
<!-- Generated by graphviz version 2.26.3 (20100126.1600)
 -->
<!-- Title: G Pages: 1 -->
<svg width="1206pt" height="1280pt"
 viewBox="0.00 0.00 1206.00 1280.00" xmlns="http://www.w3.org/2000/svg" xmlns:xlink="http://www.w3.org/1999/xlink">
<g id="graph1" class="graph" transform="scale(1 1) rotate(0) translate(4 1276)">
<title>G</title>
<polygon fill="white" stroke="white" points="-4,5 -4,-1276 1203,-1276 1203,5 -4,5"/>
<g id="graph2" class="cluster"><title>cluster_ChillDev</title>
<polyline fill="none" stroke="gray" points="495,-260 1178,-260 "/>
<path fill="none" stroke="gray" d="M1178,-260C1184,-260 1190,-266 1190,-272"/>
<polyline fill="none" stroke="gray" points="1190,-272 1190,-1252 "/>
<path fill="none" stroke="gray" d="M1190,-1252C1190,-1258 1184,-1264 1178,-1264"/>
<polyline fill="none" stroke="gray" points="1178,-1264 495,-1264 "/>
<path fill="none" stroke="gray" d="M495,-1264C489,-1264 483,-1258 483,-1252"/>
<polyline fill="none" stroke="gray" points="483,-1252 483,-272 "/>
<path fill="none" stroke="gray" d="M483,-272C483,-266 489,-260 495,-260"/>
<text text-anchor="middle" x="836.5" y="-1250.1" font-family="Times Roman,serif" font-size="11.00" fill="gray">ChillDev</text>
</g>
<g id="graph3" class="cluster"><title>cluster_ChillDev\Bundle</title>
<polyline fill="none" stroke="gray" points="503,-268 1170,-268 "/>
<path fill="none" stroke="gray" d="M1170,-268C1176,-268 1182,-274 1182,-280"/>
<polyline fill="none" stroke="gray" points="1182,-280 1182,-1222 "/>
<path fill="none" stroke="gray" d="M1182,-1222C1182,-1228 1176,-1234 1170,-1234"/>
<polyline fill="none" stroke="gray" points="1170,-1234 503,-1234 "/>
<path fill="none" stroke="gray" d="M503,-1234C497,-1234 491,-1228 491,-1222"/>
<polyline fill="none" stroke="gray" points="491,-1222 491,-280 "/>
<path fill="none" stroke="gray" d="M491,-280C491,-274 497,-268 503,-268"/>
<text text-anchor="middle" x="836.5" y="-1220.1" font-family="Times Roman,serif" font-size="11.00" fill="gray">Bundle</text>
</g>
<g id="graph4" class="cluster"><title>cluster_ChillDev\Bundle\ViewHelpersBundle</title>
<polyline fill="none" stroke="gray" points="511,-276 1162,-276 "/>
<path fill="none" stroke="gray" d="M1162,-276C1168,-276 1174,-282 1174,-288"/>
<polyline fill="none" stroke="gray" points="1174,-288 1174,-1192 "/>
<path fill="none" stroke="gray" d="M1174,-1192C1174,-1198 1168,-1204 1162,-1204"/>
<polyline fill="none" stroke="gray" points="1162,-1204 511,-1204 "/>
<path fill="none" stroke="gray" d="M511,-1204C505,-1204 499,-1198 499,-1192"/>
<polyline fill="none" stroke="gray" points="499,-1192 499,-288 "/>
<path fill="none" stroke="gray" d="M499,-288C499,-282 505,-276 511,-276"/>
<text text-anchor="middle" x="836.5" y="-1190.1" font-family="Times Roman,serif" font-size="11.00" fill="gray">ViewHelpersBundle</text>
</g>
<g id="graph5" class="cluster"><title>cluster_ChillDev\Bundle\ViewHelpersBundle\DependencyInjection</title>
<polyline fill="none" stroke="gray" points="956,-1046 1154,-1046 "/>
<path fill="none" stroke="gray" d="M1154,-1046C1160,-1046 1166,-1052 1166,-1058"/>
<polyline fill="none" stroke="gray" points="1166,-1058 1166,-1162 "/>
<path fill="none" stroke="gray" d="M1166,-1162C1166,-1168 1160,-1174 1154,-1174"/>
<polyline fill="none" stroke="gray" points="1154,-1174 956,-1174 "/>
<path fill="none" stroke="gray" d="M956,-1174C950,-1174 944,-1168 944,-1162"/>
<polyline fill="none" stroke="gray" points="944,-1162 944,-1058 "/>
<path fill="none" stroke="gray" d="M944,-1058C944,-1052 950,-1046 956,-1046"/>
<text text-anchor="middle" x="1055" y="-1160.1" font-family="Times Roman,serif" font-size="11.00" fill="gray">DependencyInjection</text>
</g>
<g id="graph6" class="cluster"><title>cluster_ChillDev\Bundle\ViewHelpersBundle\EventListener</title>
<polyline fill="none" stroke="gray" points="980,-964 1130,-964 "/>
<path fill="none" stroke="gray" d="M1130,-964C1136,-964 1142,-970 1142,-976"/>
<polyline fill="none" stroke="gray" points="1142,-976 1142,-1026 "/>
<path fill="none" stroke="gray" d="M1142,-1026C1142,-1032 1136,-1038 1130,-1038"/>
<polyline fill="none" stroke="gray" points="1130,-1038 980,-1038 "/>
<path fill="none" stroke="gray" d="M980,-1038C974,-1038 968,-1032 968,-1026"/>
<polyline fill="none" stroke="gray" points="968,-1026 968,-976 "/>
<path fill="none" stroke="gray" d="M968,-976C968,-970 974,-964 980,-964"/>
<text text-anchor="middle" x="1055" y="-1024.1" font-family="Times Roman,serif" font-size="11.00" fill="gray">EventListener</text>
</g>
<g id="graph7" class="cluster"><title>cluster_ChillDev\Bundle\ViewHelpersBundle\Templating</title>
<polyline fill="none" stroke="gray" points="519,-328 1101,-328 "/>
<path fill="none" stroke="gray" d="M1101,-328C1107,-328 1113,-334 1113,-340"/>
<polyline fill="none" stroke="gray" points="1113,-340 1113,-944 "/>
<path fill="none" stroke="gray" d="M1113,-944C1113,-950 1107,-956 1101,-956"/>
<polyline fill="none" stroke="gray" points="1101,-956 519,-956 "/>
<path fill="none" stroke="gray" d="M519,-956C513,-956 507,-950 507,-944"/>
<polyline fill="none" stroke="gray" points="507,-944 507,-340 "/>
<path fill="none" stroke="gray" d="M507,-340C507,-334 513,-328 519,-328"/>
<text text-anchor="middle" x="810" y="-942.1" font-family="Times Roman,serif" font-size="11.00" fill="gray">Templating</text>
</g>
<g id="graph8" class="cluster"><title>cluster_ChillDev\Bundle\ViewHelpersBundle\Templating\Container</title>
<polyline fill="none" stroke="gray" points="527,-798 573,-798 "/>
<path fill="none" stroke="gray" d="M573,-798C579,-798 585,-804 585,-810"/>
<polyline fill="none" stroke="gray" points="585,-810 585,-914 "/>
<path fill="none" stroke="gray" d="M585,-914C585,-920 579,-926 573,-926"/>
<polyline fill="none" stroke="gray" points="573,-926 527,-926 "/>
<path fill="none" stroke="gray" d="M527,-926C521,-926 515,-920 515,-914"/>
<polyline fill="none" stroke="gray" points="515,-914 515,-810 "/>
<path fill="none" stroke="gray" d="M515,-810C515,-804 521,-798 527,-798"/>
<text text-anchor="middle" x="550" y="-912.1" font-family="Times Roman,serif" font-size="11.00" fill="gray">Container</text>
</g>
<g id="graph9" class="cluster"><title>cluster_ChillDev\Bundle\ViewHelpersBundle\Templating\Helper</title>
<polyline fill="none" stroke="gray" points="1017,-582 1093,-582 "/>
<path fill="none" stroke="gray" d="M1093,-582C1099,-582 1105,-588 1105,-594"/>
<polyline fill="none" stroke="gray" points="1105,-594 1105,-914 "/>
<path fill="none" stroke="gray" d="M1105,-914C1105,-920 1099,-926 1093,-926"/>
<polyline fill="none" stroke="gray" points="1093,-926 1017,-926 "/>
<path fill="none" stroke="gray" d="M1017,-926C1011,-926 1005,-920 1005,-914"/>
<polyline fill="none" stroke="gray" points="1005,-914 1005,-594 "/>
<path fill="none" stroke="gray" d="M1005,-594C1005,-588 1011,-582 1017,-582"/>
<text text-anchor="middle" x="1055" y="-912.1" font-family="Times Roman,serif" font-size="11.00" fill="gray">Helper</text>
</g>
<g id="graph10" class="cluster"><title>cluster_ChillDev\Bundle\ViewHelpersBundle\Templating\Link</title>
<polyline fill="none" stroke="gray" points="1027,-500 1083,-500 "/>
<path fill="none" stroke="gray" d="M1083,-500C1089,-500 1095,-506 1095,-512"/>
<polyline fill="none" stroke="gray" points="1095,-512 1095,-562 "/>
<path fill="none" stroke="gray" d="M1095,-562C1095,-568 1089,-574 1083,-574"/>
<polyline fill="none" stroke="gray" points="1083,-574 1027,-574 "/>
<path fill="none" stroke="gray" d="M1027,-574C1021,-574 1015,-568 1015,-562"/>
<polyline fill="none" stroke="gray" points="1015,-562 1015,-512 "/>
<path fill="none" stroke="gray" d="M1015,-512C1015,-506 1021,-500 1027,-500"/>
<text text-anchor="middle" x="1055" y="-560.1" font-family="Times Roman,serif" font-size="11.00" fill="gray">Link</text>
</g>
<g id="graph11" class="cluster"><title>cluster_ChillDev\Bundle\ViewHelpersBundle\Templating\Script</title>
<polyline fill="none" stroke="gray" points="1027,-418 1083,-418 "/>
<path fill="none" stroke="gray" d="M1083,-418C1089,-418 1095,-424 1095,-430"/>
<polyline fill="none" stroke="gray" points="1095,-430 1095,-480 "/>
<path fill="none" stroke="gray" d="M1095,-480C1095,-486 1089,-492 1083,-492"/>
<polyline fill="none" stroke="gray" points="1083,-492 1027,-492 "/>
<path fill="none" stroke="gray" d="M1027,-492C1021,-492 1015,-486 1015,-480"/>
<polyline fill="none" stroke="gray" points="1015,-480 1015,-430 "/>
<path fill="none" stroke="gray" d="M1015,-430C1015,-424 1021,-418 1027,-418"/>
<text text-anchor="middle" x="1055" y="-478.1" font-family="Times Roman,serif" font-size="11.00" fill="gray">Script</text>
</g>
<g id="graph12" class="cluster"><title>cluster_ChillDev\Bundle\ViewHelpersBundle\Templating\Xhtml</title>
<polyline fill="none" stroke="gray" points="1027,-336 1083,-336 "/>
<path fill="none" stroke="gray" d="M1083,-336C1089,-336 1095,-342 1095,-348"/>
<polyline fill="none" stroke="gray" points="1095,-348 1095,-398 "/>
<path fill="none" stroke="gray" d="M1095,-398C1095,-404 1089,-410 1083,-410"/>
<polyline fill="none" stroke="gray" points="1083,-410 1027,-410 "/>
<path fill="none" stroke="gray" d="M1027,-410C1021,-410 1015,-404 1015,-398"/>
<polyline fill="none" stroke="gray" points="1015,-398 1015,-348 "/>
<path fill="none" stroke="gray" d="M1015,-348C1015,-342 1021,-336 1027,-336"/>
<text text-anchor="middle" x="1055" y="-396.1" font-family="Times Roman,serif" font-size="11.00" fill="gray">Xhtml</text>
</g>
<!-- \\ChillDev\\Bundle\\ViewHelpersBundle\\DependencyInjection\\Configuration -->
<g id="node5" class="node"><title>\\ChillDev\\Bundle\\ViewHelpersBundle\\DependencyInjection\\Configuration</title>
<a xlink:href="DependencyInjection.Configuration.html" xlink:title="Configuration" target="_parent">
<polygon fill="none" stroke="black" points="1107,-1144 1003,-1144 1003,-1108 1107,-1108 1107,-1144"/>
<text text-anchor="middle" x="1055" y="-1123.1" font-family="Courier,monospace" font-size="11.00">Configuration</text>
</a>
</g>
<!-- \\Symfony\\Component\\Config\\Definition\\ConfigurationInterface -->
<g id="node87" class="node"><title>\\Symfony\\Component\\Config\\Definition\\ConfigurationInterface</title>
<ellipse fill="none" stroke="black" cx="550" cy="-234" rx="330.219" ry="18.3848"/>
<text text-anchor="middle" x="550" y="-230.4" font-family="Times Roman,serif" font-size="14.00" fill="gray">\\Symfony\\Component\\Config\\Definition\\ConfigurationInterface</text>
</g>
<!-- \\ChillDev\\Bundle\\ViewHelpersBundle\\DependencyInjection\\Configuration&#45;&gt;\\Symfony\\Component\\Config\\Definition\\ConfigurationInterface -->
<g id="edge78" class="edge"><title>\\ChillDev\\Bundle\\ViewHelpersBundle\\DependencyInjection\\Configuration&#45;&gt;\\Symfony\\Component\\Config\\Definition\\ConfigurationInterface</title>
<path fill="none" stroke="black" stroke-dasharray="1,5" d="M1002.97,-1125C982.014,-1121.92 959.248,-1114.74 944,-1099 847.629,-999.517 930.044,-923.151 880,-794 794.414,-573.124 627.311,-337.959 569.916,-260.441"/>
<polygon fill="none" stroke="black" points="572.556,-258.126 563.779,-252.191 566.939,-262.303 572.556,-258.126"/>
</g>
<!-- \\ChillDev\\Bundle\\ViewHelpersBundle\\DependencyInjection\\ChillDevViewHelpersExtension -->
<g id="node6" class="node"><title>\\ChillDev\\Bundle\\ViewHelpersBundle\\DependencyInjection\\ChillDevViewHelpersExtension</title>
<a xlink:href="DependencyInjection.ChillDevViewHelpersExtension.html" xlink:title="ChillDevViewHelpersExtension" target="_parent">
<polygon fill="none" stroke="black" points="1158,-1090 952,-1090 952,-1054 1158,-1054 1158,-1090"/>
<text text-anchor="middle" x="1055" y="-1069.1" font-family="Courier,monospace" font-size="11.00">ChillDevViewHelpersExtension</text>
</a>
</g>
<!-- \\Symfony\\Component\\HttpKernel\\DependencyInjection\\Extension -->
<g id="node73" class="node"><title>\\Symfony\\Component\\HttpKernel\\DependencyInjection\\Extension</title>
<ellipse fill="none" stroke="black" cx="550" cy="-180" rx="329.012" ry="18.3848"/>
<text text-anchor="middle" x="550" y="-176.4" font-family="Times Roman,serif" font-size="14.00" fill="gray">\Symfony\Component\HttpKernel\DependencyInjection\Extension</text>
</g>
<!-- \\ChillDev\\Bundle\\ViewHelpersBundle\\DependencyInjection\\ChillDevViewHelpersExtension&#45;&gt;\\Symfony\\Component\\HttpKernel\\DependencyInjection\\Extension -->
<g id="edge58" class="edge"><title>\\ChillDev\\Bundle\\ViewHelpersBundle\\DependencyInjection\\ChillDevViewHelpersExtension&#45;&gt;\\Symfony\\Component\\HttpKernel\\DependencyInjection\\Extension</title>
<path fill="none" stroke="black" d="M957.147,-1053.92C952.269,-1050.56 947.82,-1046.61 944,-1042 825.302,-898.669 1011.25,-338.93 880,-207 873.842,-200.81 864.498,-195.709 852.812,-191.526"/>
<polygon fill="none" stroke="black" points="853.545,-188.085 842.953,-188.364 851.407,-194.751 853.545,-188.085"/>
</g>
<!-- \\ChillDev\\Bundle\\ViewHelpersBundle\\EventListener\\XhtmlResponseListener -->
<g id="node8" class="node"><title>\\ChillDev\\Bundle\\ViewHelpersBundle\\EventListener\\XhtmlResponseListener</title>
<a xlink:href="EventListener.XhtmlResponseListener.html" xlink:title="XhtmlResponseListener" target="_parent">
<polygon fill="none" stroke="black" points="1134,-1008 976,-1008 976,-972 1134,-972 1134,-1008"/>
<text text-anchor="middle" x="1055" y="-987.1" font-family="Courier,monospace" font-size="11.00">XhtmlResponseListener</text>
</a>
</g>
<!-- \\ChillDev\\Bundle\\ViewHelpersBundle\\Templating\\Container\\Meta -->
<g id="node11" class="node"><title>\\ChillDev\\Bundle\\ViewHelpersBundle\\Templating\\Container\\Meta</title>
<a xlink:href="Templating.Container.Meta.html" xlink:title="Meta" target="_parent">
<polygon fill="none" stroke="black" points="577,-896 523,-896 523,-860 577,-860 577,-896"/>
<text text-anchor="middle" x="550" y="-875.1" font-family="Courier,monospace" font-size="11.00">Meta</text>
</a>
</g>
<!-- \\ArrayObject -->
<g id="node77" class="node"><title>\\ArrayObject</title>
<ellipse fill="none" stroke="black" cx="74" cy="-851" rx="73.0388" ry="18.3848"/>
<text text-anchor="middle" x="74" y="-847.4" font-family="Times Roman,serif" font-size="14.00" fill="gray">\ArrayObject</text>
</g>
<!-- \\ChillDev\\Bundle\\ViewHelpersBundle\\Templating\\Container\\Meta&#45;&gt;\\ArrayObject -->
<g id="edge62" class="edge"><title>\\ChillDev\\Bundle\\ViewHelpersBundle\\Templating\\Container\\Meta&#45;&gt;\\ArrayObject</title>
<path fill="none" stroke="black" d="M522.699,-876.451C452.777,-872.485 265.093,-861.839 155.884,-855.645"/>
<polygon fill="none" stroke="black" points="156.074,-852.15 145.891,-855.078 155.677,-859.139 156.074,-852.15"/>
</g>
<!-- \\ChillDev\\Bundle\\ViewHelpersBundle\\Templating\\Container\\Words -->
<g id="node12" class="node"><title>\\ChillDev\\Bundle\\ViewHelpersBundle\\Templating\\Container\\Words</title>
<a xlink:href="Templating.Container.Words.html" xlink:title="Words" target="_parent">
<polygon fill="none" stroke="black" points="577,-842 523,-842 523,-806 577,-806 577,-842"/>
<text text-anchor="middle" x="550" y="-821.1" font-family="Courier,monospace" font-size="11.00">Words</text>
</a>
</g>
<!-- \\ChillDev\\Bundle\\ViewHelpersBundle\\Templating\\Container\\Words&#45;&gt;\\ArrayObject -->
<g id="edge64" class="edge"><title>\\ChillDev\\Bundle\\ViewHelpersBundle\\Templating\\Container\\Words&#45;&gt;\\ArrayObject</title>
<path fill="none" stroke="black" d="M522.699,-825.549C452.777,-829.515 265.093,-840.161 155.884,-846.355"/>
<polygon fill="none" stroke="black" points="155.677,-842.861 145.891,-846.922 156.074,-849.85 155.677,-842.861"/>
</g>
<!-- \\ChillDev\\Bundle\\ViewHelpersBundle\\Templating\\Helper\\Xhtml -->
<g id="node14" class="node"><title>\\ChillDev\\Bundle\\ViewHelpersBundle\\Templating\\Helper\\Xhtml</title>
<a xlink:href="Templating.Helper.Xhtml.html" xlink:title="Xhtml" target="_parent">
<polygon fill="none" stroke="black" points="1082,-734 1028,-734 1028,-698 1082,-698 1082,-734"/>
<text text-anchor="middle" x="1055" y="-713.1" font-family="Courier,monospace" font-size="11.00">Xhtml</text>
</a>
</g>
<!-- \\Symfony\\Component\\Templating\\Helper\\Helper -->
<g id="node80" class="node"><title>\\Symfony\\Component\\Templating\\Helper\\Helper</title>
<ellipse fill="none" stroke="black" cx="550" cy="-72" rx="243.245" ry="18.3848"/>
<text text-anchor="middle" x="550" y="-68.4" font-family="Times Roman,serif" font-size="14.00" fill="gray">\Symfony\Component\Templating\Helper\Helper</text>
</g>
<!-- \\ChillDev\\Bundle\\ViewHelpersBundle\\Templating\\Helper\\Xhtml&#45;&gt;\\Symfony\\Component\\Templating\\Helper\\Helper -->
<g id="edge66" class="edge"><title>\\ChillDev\\Bundle\\ViewHelpersBundle\\Templating\\Helper\\Xhtml&#45;&gt;\\Symfony\\Component\\Templating\\Helper\\Helper</title>
<path fill="none" stroke="black" d="M1027.74,-717.515C1002.1,-717.32 964.665,-712.556 944,-689 857.028,-589.862 974.477,-191.014 880,-99 814.973,-35.6681 704.607,-40.1939 629.578,-52.9602"/>
<polygon fill="none" stroke="black" points="628.922,-49.5217 619.693,-54.7241 630.152,-56.4129 628.922,-49.5217"/>
</g>
<!-- \\ChillDev\\Bundle\\ViewHelpersBundle\\Templating\\Helper\\Serializer -->
<g id="node15" class="node"><title>\\ChillDev\\Bundle\\ViewHelpersBundle\\Templating\\Helper\\Serializer</title>
<a xlink:href="Templating.Helper.Serializer.html" xlink:title="Serializer" target="_parent">
<polygon fill="none" stroke="black" points="1097,-680 1013,-680 1013,-644 1097,-644 1097,-680"/>
<text text-anchor="middle" x="1055" y="-659.1" font-family="Courier,monospace" font-size="11.00">Serializer</text>
</a>
</g>
<!-- \\ChillDev\\Bundle\\ViewHelpersBundle\\Templating\\Helper\\Serializer&#45;&gt;\\Symfony\\Component\\Templating\\Helper\\Helper -->
<g id="edge68" class="edge"><title>\\ChillDev\\Bundle\\ViewHelpersBundle\\Templating\\Helper\\Serializer&#45;&gt;\\Symfony\\Component\\Templating\\Helper\\Helper</title>
<path fill="none" stroke="black" d="M1012.96,-662.813C989.246,-660.899 961.041,-654.215 944,-635 784.812,-455.506 1052.77,-265.46 880,-99 814.83,-36.2106 705.014,-40.4371 630.11,-53.0003"/>
<polygon fill="none" stroke="black" points="629.481,-49.5571 620.239,-54.7376 630.694,-56.4511 629.481,-49.5571"/>
</g>
<!-- \\ChillDev\\Bundle\\ViewHelpersBundle\\Templating\\Helper\\Link -->
<g id="node16" class="node"><title>\\ChillDev\\Bundle\\ViewHelpersBundle\\Templating\\Helper\\Link</title>
<a xlink:href="Templating.Helper.Link.html" xlink:title="Link" target="_parent">
<polygon fill="none" stroke="black" points="1082,-626 1028,-626 1028,-590 1082,-590 1082,-626"/>
<text text-anchor="middle" x="1055" y="-605.1" font-family="Courier,monospace" font-size="11.00">Link</text>
</a>
</g>
<!-- \\ChillDev\\Bundle\\ViewHelpersBundle\\Templating\\Helper\\Link&#45;&gt;\\Symfony\\Component\\Templating\\Helper\\Helper -->
<g id="edge70" class="edge"><title>\\ChillDev\\Bundle\\ViewHelpersBundle\\Templating\\Helper\\Link&#45;&gt;\\Symfony\\Component\\Templating\\Helper\\Helper</title>
<path fill="none" stroke="black" d="M1027.8,-608.603C1002.2,-607.585 964.793,-601.716 944,-578 802.405,-416.502 1035.71,-246.937 880,-99 814.825,-37.0786 706.121,-40.7377 631.398,-52.9593"/>
<polygon fill="none" stroke="black" points="630.349,-49.5883 621.088,-54.7347 631.537,-56.4868 630.349,-49.5883"/>
</g>
<!-- \\ChillDev\\Bundle\\ViewHelpersBundle\\Templating\\Helper\\Meta -->
<g id="node17" class="node"><title>\\ChillDev\\Bundle\\ViewHelpersBundle\\Templating\\Helper\\Meta</title>
<a xlink:href="Templating.Helper.Meta.html" xlink:title="Meta" target="_parent">
<polygon fill="none" stroke="black" points="1082,-842 1028,-842 1028,-806 1082,-806 1082,-842"/>
<text text-anchor="middle" x="1055" y="-821.1" font-family="Courier,monospace" font-size="11.00">Meta</text>
</a>
</g>
<!-- \\ChillDev\\Bundle\\ViewHelpersBundle\\Templating\\Helper\\Meta&#45;&gt;\\Symfony\\Component\\Templating\\Helper\\Helper -->
<g id="edge72" class="edge"><title>\\ChillDev\\Bundle\\ViewHelpersBundle\\Templating\\Helper\\Meta&#45;&gt;\\Symfony\\Component\\Templating\\Helper\\Helper</title>
<path fill="none" stroke="black" d="M1027.65,-825.59C1001.95,-825.451 964.469,-820.727 944,-797 842.255,-679.06 990.678,-208.599 880,-99 866.466,-85.598 837.825,-77.3253 802.806,-72.4244"/>
<polygon fill="none" stroke="black" points="803.132,-68.9376 792.767,-71.13 802.237,-75.8801 803.132,-68.9376"/>
</g>
<!-- \\ChillDev\\Bundle\\ViewHelpersBundle\\Templating\\Helper\\Script -->
<g id="node18" class="node"><title>\\ChillDev\\Bundle\\ViewHelpersBundle\\Templating\\Helper\\Script</title>
<a xlink:href="Templating.Helper.Script.html" xlink:title="Script" target="_parent">
<polygon fill="none" stroke="black" points="1083,-788 1027,-788 1027,-752 1083,-752 1083,-788"/>
<text text-anchor="middle" x="1055" y="-767.1" font-family="Courier,monospace" font-size="11.00">Script</text>
</a>
</g>
<!-- \\ChillDev\\Bundle\\ViewHelpersBundle\\Templating\\Helper\\Script&#45;&gt;\\Symfony\\Component\\Templating\\Helper\\Helper -->
<g id="edge74" class="edge"><title>\\ChillDev\\Bundle\\ViewHelpersBundle\\Templating\\Helper\\Script&#45;&gt;\\Symfony\\Component\\Templating\\Helper\\Helper</title>
<path fill="none" stroke="black" d="M1026.22,-771.542C1000.61,-771.204 964.169,-766.2 944,-743 849.644,-634.464 982.575,-199.804 880,-99 866.462,-85.6956 837.947,-77.4588 803.084,-72.5602"/>
<polygon fill="none" stroke="black" points="803.456,-69.0793 793.09,-71.2657 802.557,-76.0213 803.456,-69.0793"/>
</g>
<!-- \\ChillDev\\Bundle\\ViewHelpersBundle\\Templating\\Helper\\Title -->
<g id="node19" class="node"><title>\\ChillDev\\Bundle\\ViewHelpersBundle\\Templating\\Helper\\Title</title>
<a xlink:href="Templating.Helper.Title.html" xlink:title="Title" target="_parent">
<polygon fill="none" stroke="black" points="1082,-896 1028,-896 1028,-860 1082,-860 1082,-896"/>
<text text-anchor="middle" x="1055" y="-875.1" font-family="Courier,monospace" font-size="11.00">Title</text>
</a>
</g>
<!-- \\ChillDev\\Bundle\\ViewHelpersBundle\\Templating\\Helper\\Title&#45;&gt;\\ChillDev\\Bundle\\ViewHelpersBundle\\Templating\\Container\\Words -->
<g id="edge76" class="edge"><title>\\ChillDev\\Bundle\\ViewHelpersBundle\\Templating\\Helper\\Title&#45;&gt;\\ChillDev\\Bundle\\ViewHelpersBundle\\Templating\\Container\\Words</title>
<path fill="none" stroke="black" d="M1027.8,-873.186C993.459,-867.251 932.512,-857.191 880,-851 774.176,-838.523 648.58,-829.959 587.332,-826.182"/>
<polygon fill="none" stroke="black" points="587.208,-822.669 577.014,-825.554 586.783,-829.656 587.208,-822.669"/>
</g>
<!-- \\Symfony\\Component\\Templating\\Helper\\HelperInterface -->
<g id="node89" class="node"><title>\\Symfony\\Component\\Templating\\Helper\\HelperInterface</title>
<ellipse fill="none" stroke="black" cx="550" cy="-126" rx="302.141" ry="18.3848"/>
<text text-anchor="middle" x="550" y="-122.4" font-family="Times Roman,serif" font-size="14.00" fill="gray">\\Symfony\\Component\\Templating\\Helper\\HelperInterface</text>
</g>
<!-- \\ChillDev\\Bundle\\ViewHelpersBundle\\Templating\\Helper\\Title&#45;&gt;\\Symfony\\Component\\Templating\\Helper\\HelperInterface -->
<g id="edge80" class="edge"><title>\\ChillDev\\Bundle\\ViewHelpersBundle\\Templating\\Helper\\Title&#45;&gt;\\Symfony\\Component\\Templating\\Helper\\HelperInterface</title>
<path fill="none" stroke="black" stroke-dasharray="1,5" d="M1027.65,-879.59C1001.95,-879.451 964.469,-874.727 944,-851 842.255,-733.06 990.678,-262.599 880,-153 872.318,-145.392 859.768,-139.438 843.946,-134.814"/>
<polygon fill="none" stroke="black" points="844.828,-131.427 834.265,-132.243 843.032,-138.193 844.828,-131.427"/>
</g>
<!-- \\ChillDev\\Bundle\\ViewHelpersBundle\\Templating\\Link\\Element -->
<g id="node21" class="node"><title>\\ChillDev\\Bundle\\ViewHelpersBundle\\Templating\\Link\\Element</title>
<a xlink:href="Templating.Link.Element.html" xlink:title="Element" target="_parent">
<polygon fill="none" stroke="black" points="1087,-544 1023,-544 1023,-508 1087,-508 1087,-544"/>
<text text-anchor="middle" x="1055" y="-523.1" font-family="Courier,monospace" font-size="11.00">Element</text>
</a>
</g>
<!-- \\ChillDev\\Bundle\\ViewHelpersBundle\\Templating\\Script\\Element -->
<g id="node23" class="node"><title>\\ChillDev\\Bundle\\ViewHelpersBundle\\Templating\\Script\\Element</title>
<a xlink:href="Templating.Script.Element.html" xlink:title="Element" target="_parent">
<polygon fill="none" stroke="black" points="1087,-462 1023,-462 1023,-426 1087,-426 1087,-462"/>
<text text-anchor="middle" x="1055" y="-441.1" font-family="Courier,monospace" font-size="11.00">Element</text>
</a>
</g>
<!-- \\ChillDev\\Bundle\\ViewHelpersBundle\\Templating\\Xhtml\\Checker -->
<g id="node25" class="node"><title>\\ChillDev\\Bundle\\ViewHelpersBundle\\Templating\\Xhtml\\Checker</title>
<a xlink:href="Templating.Xhtml.Checker.html" xlink:title="Checker" target="_parent">
<polygon fill="none" stroke="black" points="1087,-380 1023,-380 1023,-344 1087,-344 1087,-380"/>
<text text-anchor="middle" x="1055" y="-359.1" font-family="Courier,monospace" font-size="11.00">Checker</text>
</a>
</g>
<!-- \\ChillDev\\Bundle\\ViewHelpersBundle\\ChillDevViewHelpersBundle -->
<g id="node31" class="node"><title>\\ChillDev\\Bundle\\ViewHelpersBundle\\ChillDevViewHelpersBundle</title>
<a xlink:href="ChillDevViewHelpersBundle.html" xlink:title="ChillDevViewHelpersBundle" target="_parent">
<polygon fill="none" stroke="black" points="1147,-320 963,-320 963,-284 1147,-284 1147,-320"/>
<text text-anchor="middle" x="1055" y="-299.1" font-family="Courier,monospace" font-size="11.00">ChillDevViewHelpersBundle</text>
</a>
</g>
<!-- \\Symfony\\Component\\HttpKernel\\Bundle\\Bundle -->
<g id="node75" class="node"><title>\\Symfony\\Component\\HttpKernel\\Bundle\\Bundle</title>
<ellipse fill="none" stroke="black" cx="550" cy="-18" rx="246.78" ry="18.3848"/>
<text text-anchor="middle" x="550" y="-14.4" font-family="Times Roman,serif" font-size="14.00" fill="gray">\Symfony\Component\HttpKernel\Bundle\Bundle</text>
</g>
<!-- \\ChillDev\\Bundle\\ViewHelpersBundle\\ChillDevViewHelpersBundle&#45;&gt;\\Symfony\\Component\\HttpKernel\\Bundle\\Bundle -->
<g id="edge60" class="edge"><title>\\ChillDev\\Bundle\\ViewHelpersBundle\\ChillDevViewHelpersBundle&#45;&gt;\\Symfony\\Component\\HttpKernel\\Bundle\\Bundle</title>
<path fill="none" stroke="black" d="M1048.96,-283.891C1031.65,-235.202 976.794,-101.364 880,-45 827.172,-14.2378 761.286,-4.37462 702.308,-3.35543"/>
<polygon fill="none" stroke="black" points="702.176,0.145786 692.146,-3.26501 702.114,-6.85394 702.176,0.145786"/>
</g>
</g>
</svg>
