<?xml version="1.0" encoding="UTF-8" standalone="no"?>
<!DOCTYPE svg PUBLIC "-//W3C//DTD SVG 1.1//EN"
 "http://www.w3.org/Graphics/SVG/1.1/DTD/svg11.dtd">
<!-- Generated by graphviz version 2.26.3 (20100126.1600)
 -->
<!-- Title: G Pages: 1 -->
<svg width="1206pt" height="1062pt"
 viewBox="0.00 0.00 1206.00 1062.00" xmlns="http://www.w3.org/2000/svg" xmlns:xlink="http://www.w3.org/1999/xlink">
<g id="graph1" class="graph" transform="scale(1 1) rotate(0) translate(4 1058)">
<title>G</title>
<polygon fill="white" stroke="white" points="-4,5 -4,-1058 1203,-1058 1203,5 -4,5"/>
<g id="graph2" class="cluster"><title>cluster_ChillDev</title>
<polyline fill="none" stroke="gray" points="495,-260 1178,-260 "/>
<path fill="none" stroke="gray" d="M1178,-260C1184,-260 1190,-266 1190,-272"/>
<polyline fill="none" stroke="gray" points="1190,-272 1190,-1034 "/>
<path fill="none" stroke="gray" d="M1190,-1034C1190,-1040 1184,-1046 1178,-1046"/>
<polyline fill="none" stroke="gray" points="1178,-1046 495,-1046 "/>
<path fill="none" stroke="gray" d="M495,-1046C489,-1046 483,-1040 483,-1034"/>
<polyline fill="none" stroke="gray" points="483,-1034 483,-272 "/>
<path fill="none" stroke="gray" d="M483,-272C483,-266 489,-260 495,-260"/>
<text text-anchor="middle" x="836.5" y="-1032.1" font-family="Times Roman,serif" font-size="11.00" fill="gray">ChillDev</text>
</g>
<g id="graph3" class="cluster"><title>cluster_ChillDev\Bundle</title>
<polyline fill="none" stroke="gray" points="503,-268 1170,-268 "/>
<path fill="none" stroke="gray" d="M1170,-268C1176,-268 1182,-274 1182,-280"/>
<polyline fill="none" stroke="gray" points="1182,-280 1182,-1004 "/>
<path fill="none" stroke="gray" d="M1182,-1004C1182,-1010 1176,-1016 1170,-1016"/>
<polyline fill="none" stroke="gray" points="1170,-1016 503,-1016 "/>
<path fill="none" stroke="gray" d="M503,-1016C497,-1016 491,-1010 491,-1004"/>
<polyline fill="none" stroke="gray" points="491,-1004 491,-280 "/>
<path fill="none" stroke="gray" d="M491,-280C491,-274 497,-268 503,-268"/>
<text text-anchor="middle" x="836.5" y="-1002.1" font-family="Times Roman,serif" font-size="11.00" fill="gray">Bundle</text>
</g>
<g id="graph4" class="cluster"><title>cluster_ChillDev\Bundle\ViewHelpersBundle</title>
<polyline fill="none" stroke="gray" points="511,-276 1162,-276 "/>
<path fill="none" stroke="gray" d="M1162,-276C1168,-276 1174,-282 1174,-288"/>
<polyline fill="none" stroke="gray" points="1174,-288 1174,-974 "/>
<path fill="none" stroke="gray" d="M1174,-974C1174,-980 1168,-986 1162,-986"/>
<polyline fill="none" stroke="gray" points="1162,-986 511,-986 "/>
<path fill="none" stroke="gray" d="M511,-986C505,-986 499,-980 499,-974"/>
<polyline fill="none" stroke="gray" points="499,-974 499,-288 "/>
<path fill="none" stroke="gray" d="M499,-288C499,-282 505,-276 511,-276"/>
<text text-anchor="middle" x="836.5" y="-972.1" font-family="Times Roman,serif" font-size="11.00" fill="gray">ViewHelpersBundle</text>
</g>
<g id="graph5" class="cluster"><title>cluster_ChillDev\Bundle\ViewHelpersBundle\DependencyInjection</title>
<polyline fill="none" stroke="gray" points="956,-828 1154,-828 "/>
<path fill="none" stroke="gray" d="M1154,-828C1160,-828 1166,-834 1166,-840"/>
<polyline fill="none" stroke="gray" points="1166,-840 1166,-944 "/>
<path fill="none" stroke="gray" d="M1166,-944C1166,-950 1160,-956 1154,-956"/>
<polyline fill="none" stroke="gray" points="1154,-956 956,-956 "/>
<path fill="none" stroke="gray" d="M956,-956C950,-956 944,-950 944,-944"/>
<polyline fill="none" stroke="gray" points="944,-944 944,-840 "/>
<path fill="none" stroke="gray" d="M944,-840C944,-834 950,-828 956,-828"/>
<text text-anchor="middle" x="1055" y="-942.1" font-family="Times Roman,serif" font-size="11.00" fill="gray">DependencyInjection</text>
</g>
<g id="graph6" class="cluster"><title>cluster_ChillDev\Bundle\ViewHelpersBundle\EventListener</title>
<polyline fill="none" stroke="gray" points="980,-746 1130,-746 "/>
<path fill="none" stroke="gray" d="M1130,-746C1136,-746 1142,-752 1142,-758"/>
<polyline fill="none" stroke="gray" points="1142,-758 1142,-808 "/>
<path fill="none" stroke="gray" d="M1142,-808C1142,-814 1136,-820 1130,-820"/>
<polyline fill="none" stroke="gray" points="1130,-820 980,-820 "/>
<path fill="none" stroke="gray" d="M980,-820C974,-820 968,-814 968,-808"/>
<polyline fill="none" stroke="gray" points="968,-808 968,-758 "/>
<path fill="none" stroke="gray" d="M968,-758C968,-752 974,-746 980,-746"/>
<text text-anchor="middle" x="1055" y="-806.1" font-family="Times Roman,serif" font-size="11.00" fill="gray">EventListener</text>
</g>
<g id="graph7" class="cluster"><title>cluster_ChillDev\Bundle\ViewHelpersBundle\Templating</title>
<polyline fill="none" stroke="gray" points="519,-328 1101,-328 "/>
<path fill="none" stroke="gray" d="M1101,-328C1107,-328 1113,-334 1113,-340"/>
<polyline fill="none" stroke="gray" points="1113,-340 1113,-726 "/>
<path fill="none" stroke="gray" d="M1113,-726C1113,-732 1107,-738 1101,-738"/>
<polyline fill="none" stroke="gray" points="1101,-738 519,-738 "/>
<path fill="none" stroke="gray" d="M519,-738C513,-738 507,-732 507,-726"/>
<polyline fill="none" stroke="gray" points="507,-726 507,-340 "/>
<path fill="none" stroke="gray" d="M507,-340C507,-334 513,-328 519,-328"/>
<text text-anchor="middle" x="810" y="-724.1" font-family="Times Roman,serif" font-size="11.00" fill="gray">Templating</text>
</g>
<g id="graph8" class="cluster"><title>cluster_ChillDev\Bundle\ViewHelpersBundle\Templating\Container</title>
<polyline fill="none" stroke="gray" points="527,-580 573,-580 "/>
<path fill="none" stroke="gray" d="M573,-580C579,-580 585,-586 585,-592"/>
<polyline fill="none" stroke="gray" points="585,-592 585,-696 "/>
<path fill="none" stroke="gray" d="M585,-696C585,-702 579,-708 573,-708"/>
<polyline fill="none" stroke="gray" points="573,-708 527,-708 "/>
<path fill="none" stroke="gray" d="M527,-708C521,-708 515,-702 515,-696"/>
<polyline fill="none" stroke="gray" points="515,-696 515,-592 "/>
<path fill="none" stroke="gray" d="M515,-592C515,-586 521,-580 527,-580"/>
<text text-anchor="middle" x="550" y="-694.1" font-family="Times Roman,serif" font-size="11.00" fill="gray">Container</text>
</g>
<g id="graph9" class="cluster"><title>cluster_ChillDev\Bundle\ViewHelpersBundle\Templating\Helper</title>
<polyline fill="none" stroke="gray" points="1017,-418 1093,-418 "/>
<path fill="none" stroke="gray" d="M1093,-418C1099,-418 1105,-424 1105,-430"/>
<polyline fill="none" stroke="gray" points="1105,-430 1105,-696 "/>
<path fill="none" stroke="gray" d="M1105,-696C1105,-702 1099,-708 1093,-708"/>
<polyline fill="none" stroke="gray" points="1093,-708 1017,-708 "/>
<path fill="none" stroke="gray" d="M1017,-708C1011,-708 1005,-702 1005,-696"/>
<polyline fill="none" stroke="gray" points="1005,-696 1005,-430 "/>
<path fill="none" stroke="gray" d="M1005,-430C1005,-424 1011,-418 1017,-418"/>
<text text-anchor="middle" x="1055" y="-694.1" font-family="Times Roman,serif" font-size="11.00" fill="gray">Helper</text>
</g>
<g id="graph10" class="cluster"><title>cluster_ChillDev\Bundle\ViewHelpersBundle\Templating\Link</title>
<polyline fill="none" stroke="gray" points="1027,-336 1083,-336 "/>
<path fill="none" stroke="gray" d="M1083,-336C1089,-336 1095,-342 1095,-348"/>
<polyline fill="none" stroke="gray" points="1095,-348 1095,-398 "/>
<path fill="none" stroke="gray" d="M1095,-398C1095,-404 1089,-410 1083,-410"/>
<polyline fill="none" stroke="gray" points="1083,-410 1027,-410 "/>
<path fill="none" stroke="gray" d="M1027,-410C1021,-410 1015,-404 1015,-398"/>
<polyline fill="none" stroke="gray" points="1015,-398 1015,-348 "/>
<path fill="none" stroke="gray" d="M1015,-348C1015,-342 1021,-336 1027,-336"/>
<text text-anchor="middle" x="1055" y="-396.1" font-family="Times Roman,serif" font-size="11.00" fill="gray">Link</text>
</g>
<!-- \\ChillDev\\Bundle\\ViewHelpersBundle\\DependencyInjection\\Configuration -->
<g id="node5" class="node"><title>\\ChillDev\\Bundle\\ViewHelpersBundle\\DependencyInjection\\Configuration</title>
<a xlink:href="DependencyInjection.Configuration.html" xlink:title="Configuration" target="_parent">
<polygon fill="none" stroke="black" points="1107,-926 1003,-926 1003,-890 1107,-890 1107,-926"/>
<text text-anchor="middle" x="1055" y="-905.1" font-family="Courier,monospace" font-size="11.00">Configuration</text>
</a>
</g>
<!-- \\Symfony\\Component\\Config\\Definition\\ConfigurationInterface -->
<g id="node67" class="node"><title>\\Symfony\\Component\\Config\\Definition\\ConfigurationInterface</title>
<ellipse fill="none" stroke="black" cx="550" cy="-234" rx="330.219" ry="18.3848"/>
<text text-anchor="middle" x="550" y="-230.4" font-family="Times Roman,serif" font-size="14.00" fill="gray">\\Symfony\\Component\\Config\\Definition\\ConfigurationInterface</text>
</g>
<!-- \\ChillDev\\Bundle\\ViewHelpersBundle\\DependencyInjection\\Configuration&#45;&gt;\\Symfony\\Component\\Config\\Definition\\ConfigurationInterface -->
<g id="edge60" class="edge"><title>\\ChillDev\\Bundle\\ViewHelpersBundle\\DependencyInjection\\Configuration&#45;&gt;\\Symfony\\Component\\Config\\Definition\\ConfigurationInterface</title>
<path fill="none" stroke="black" stroke-dasharray="1,5" d="M1002.97,-907.003C982.014,-903.923 959.248,-896.741 944,-881 847.629,-781.517 944.842,-698.393 880,-576 804.435,-433.366 651.646,-309.007 583.79,-258.289"/>
<polygon fill="none" stroke="black" points="585.68,-255.333 575.562,-252.19 581.511,-260.957 585.68,-255.333"/>
</g>
<!-- \\ChillDev\\Bundle\\ViewHelpersBundle\\DependencyInjection\\ChillDevViewHelpersExtension -->
<g id="node6" class="node"><title>\\ChillDev\\Bundle\\ViewHelpersBundle\\DependencyInjection\\ChillDevViewHelpersExtension</title>
<a xlink:href="DependencyInjection.ChillDevViewHelpersExtension.html" xlink:title="ChillDevViewHelpersExtension" target="_parent">
<polygon fill="none" stroke="black" points="1158,-872 952,-872 952,-836 1158,-836 1158,-872"/>
<text text-anchor="middle" x="1055" y="-851.1" font-family="Courier,monospace" font-size="11.00">ChillDevViewHelpersExtension</text>
</a>
</g>
<!-- \\Symfony\\Component\\HttpKernel\\DependencyInjection\\Extension -->
<g id="node54" class="node"><title>\\Symfony\\Component\\HttpKernel\\DependencyInjection\\Extension</title>
<ellipse fill="none" stroke="black" cx="550" cy="-180" rx="329.012" ry="18.3848"/>
<text text-anchor="middle" x="550" y="-176.4" font-family="Times Roman,serif" font-size="14.00" fill="gray">\Symfony\Component\HttpKernel\DependencyInjection\Extension</text>
</g>
<!-- \\ChillDev\\Bundle\\ViewHelpersBundle\\DependencyInjection\\ChillDevViewHelpersExtension&#45;&gt;\\Symfony\\Component\\HttpKernel\\DependencyInjection\\Extension -->
<g id="edge42" class="edge"><title>\\ChillDev\\Bundle\\ViewHelpersBundle\\DependencyInjection\\ChillDevViewHelpersExtension&#45;&gt;\\Symfony\\Component\\HttpKernel\\DependencyInjection\\Extension</title>
<path fill="none" stroke="black" d="M957.291,-835.803C952.377,-832.464 947.881,-828.561 944,-824 854.661,-719.023 978.525,-303.408 880,-207 815.515,-143.9 706.058,-148.024 631.012,-160.661"/>
<polygon fill="none" stroke="black" points="630.358,-157.222 621.119,-162.409 631.576,-164.115 630.358,-157.222"/>
</g>
<!-- \\ChillDev\\Bundle\\ViewHelpersBundle\\EventListener\\XhtmlResponseListener -->
<g id="node8" class="node"><title>\\ChillDev\\Bundle\\ViewHelpersBundle\\EventListener\\XhtmlResponseListener</title>
<a xlink:href="EventListener.XhtmlResponseListener.html" xlink:title="XhtmlResponseListener" target="_parent">
<polygon fill="none" stroke="black" points="1134,-790 976,-790 976,-754 1134,-754 1134,-790"/>
<text text-anchor="middle" x="1055" y="-769.1" font-family="Courier,monospace" font-size="11.00">XhtmlResponseListener</text>
</a>
</g>
<!-- \\ChillDev\\Bundle\\ViewHelpersBundle\\Templating\\Container\\Meta -->
<g id="node11" class="node"><title>\\ChillDev\\Bundle\\ViewHelpersBundle\\Templating\\Container\\Meta</title>
<a xlink:href="Templating.Container.Meta.html" xlink:title="Meta" target="_parent">
<polygon fill="none" stroke="black" points="577,-678 523,-678 523,-642 577,-642 577,-678"/>
<text text-anchor="middle" x="550" y="-657.1" font-family="Courier,monospace" font-size="11.00">Meta</text>
</a>
</g>
<!-- \\ArrayObject -->
<g id="node58" class="node"><title>\\ArrayObject</title>
<ellipse fill="none" stroke="black" cx="74" cy="-633" rx="73.0388" ry="18.3848"/>
<text text-anchor="middle" x="74" y="-629.4" font-family="Times Roman,serif" font-size="14.00" fill="gray">\ArrayObject</text>
</g>
<!-- \\ChillDev\\Bundle\\ViewHelpersBundle\\Templating\\Container\\Meta&#45;&gt;\\ArrayObject -->
<g id="edge46" class="edge"><title>\\ChillDev\\Bundle\\ViewHelpersBundle\\Templating\\Container\\Meta&#45;&gt;\\ArrayObject</title>
<path fill="none" stroke="black" d="M522.699,-658.451C452.777,-654.485 265.093,-643.839 155.884,-637.645"/>
<polygon fill="none" stroke="black" points="156.074,-634.15 145.891,-637.078 155.677,-641.139 156.074,-634.15"/>
</g>
<!-- \\ChillDev\\Bundle\\ViewHelpersBundle\\Templating\\Container\\Words -->
<g id="node12" class="node"><title>\\ChillDev\\Bundle\\ViewHelpersBundle\\Templating\\Container\\Words</title>
<a xlink:href="Templating.Container.Words.html" xlink:title="Words" target="_parent">
<polygon fill="none" stroke="black" points="577,-624 523,-624 523,-588 577,-588 577,-624"/>
<text text-anchor="middle" x="550" y="-603.1" font-family="Courier,monospace" font-size="11.00">Words</text>
</a>
</g>
<!-- \\ChillDev\\Bundle\\ViewHelpersBundle\\Templating\\Container\\Words&#45;&gt;\\ArrayObject -->
<g id="edge48" class="edge"><title>\\ChillDev\\Bundle\\ViewHelpersBundle\\Templating\\Container\\Words&#45;&gt;\\ArrayObject</title>
<path fill="none" stroke="black" d="M522.699,-607.549C452.777,-611.515 265.093,-622.161 155.884,-628.355"/>
<polygon fill="none" stroke="black" points="155.677,-624.861 145.891,-628.922 156.074,-631.85 155.677,-624.861"/>
</g>
<!-- \\ChillDev\\Bundle\\ViewHelpersBundle\\Templating\\Helper\\Xhtml -->
<g id="node14" class="node"><title>\\ChillDev\\Bundle\\ViewHelpersBundle\\Templating\\Helper\\Xhtml</title>
<a xlink:href="Templating.Helper.Xhtml.html" xlink:title="Xhtml" target="_parent">
<polygon fill="none" stroke="black" points="1082,-570 1028,-570 1028,-534 1082,-534 1082,-570"/>
<text text-anchor="middle" x="1055" y="-549.1" font-family="Courier,monospace" font-size="11.00">Xhtml</text>
</a>
</g>
<!-- \\Symfony\\Component\\Templating\\Helper\\Helper -->
<g id="node61" class="node"><title>\\Symfony\\Component\\Templating\\Helper\\Helper</title>
<ellipse fill="none" stroke="black" cx="550" cy="-72" rx="243.245" ry="18.3848"/>
<text text-anchor="middle" x="550" y="-68.4" font-family="Times Roman,serif" font-size="14.00" fill="gray">\Symfony\Component\Templating\Helper\Helper</text>
</g>
<!-- \\ChillDev\\Bundle\\ViewHelpersBundle\\Templating\\Helper\\Xhtml&#45;&gt;\\Symfony\\Component\\Templating\\Helper\\Helper -->
<g id="edge50" class="edge"><title>\\ChillDev\\Bundle\\ViewHelpersBundle\\Templating\\Helper\\Xhtml&#45;&gt;\\Symfony\\Component\\Templating\\Helper\\Helper</title>
<path fill="none" stroke="black" d="M1027.95,-553.327C1002.47,-552.991 965.144,-548.127 944,-525 814.81,-383.699 1019.87,-229.737 880,-99 814.623,-37.8929 706.724,-41.1214 632.196,-53.0363"/>
<polygon fill="none" stroke="black" points="631.189,-49.6566 621.91,-54.7694 632.352,-56.5593 631.189,-49.6566"/>
</g>
<!-- \\ChillDev\\Bundle\\ViewHelpersBundle\\Templating\\Helper\\Serializer -->
<g id="node15" class="node"><title>\\ChillDev\\Bundle\\ViewHelpersBundle\\Templating\\Helper\\Serializer</title>
<a xlink:href="Templating.Helper.Serializer.html" xlink:title="Serializer" target="_parent">
<polygon fill="none" stroke="black" points="1097,-516 1013,-516 1013,-480 1097,-480 1097,-516"/>
<text text-anchor="middle" x="1055" y="-495.1" font-family="Courier,monospace" font-size="11.00">Serializer</text>
</a>
</g>
<!-- \\ChillDev\\Bundle\\ViewHelpersBundle\\Templating\\Helper\\Serializer&#45;&gt;\\Symfony\\Component\\Templating\\Helper\\Helper -->
<g id="edge52" class="edge"><title>\\ChillDev\\Bundle\\ViewHelpersBundle\\Templating\\Helper\\Serializer&#45;&gt;\\Symfony\\Component\\Templating\\Helper\\Helper</title>
<path fill="none" stroke="black" d="M1012.77,-498.439C989.295,-496.355 961.395,-489.625 944,-471 829.49,-348.397 1003.77,-212.248 880,-99 814.383,-38.9617 707.539,-41.6333 633.27,-53.1439"/>
<polygon fill="none" stroke="black" points="632.319,-49.7529 623.015,-54.8211 633.449,-56.6612 632.319,-49.7529"/>
</g>
<!-- \\ChillDev\\Bundle\\ViewHelpersBundle\\Templating\\Helper\\Link -->
<g id="node16" class="node"><title>\\ChillDev\\Bundle\\ViewHelpersBundle\\Templating\\Helper\\Link</title>
<a xlink:href="Templating.Helper.Link.html" xlink:title="Link" target="_parent">
<polygon fill="none" stroke="black" points="1082,-462 1028,-462 1028,-426 1082,-426 1082,-462"/>
<text text-anchor="middle" x="1055" y="-441.1" font-family="Courier,monospace" font-size="11.00">Link</text>
</a>
</g>
<!-- \\ChillDev\\Bundle\\ViewHelpersBundle\\Templating\\Helper\\Link&#45;&gt;\\Symfony\\Component\\Templating\\Helper\\Helper -->
<g id="edge54" class="edge"><title>\\ChillDev\\Bundle\\ViewHelpersBundle\\Templating\\Helper\\Link&#45;&gt;\\Symfony\\Component\\Templating\\Helper\\Helper</title>
<path fill="none" stroke="black" d="M1027.66,-444.264C1002.34,-442.959 965.446,-436.854 944,-414 846.241,-309.826 986.837,-193.842 880,-99 814.206,-40.5929 709.13,-42.3732 635.259,-53.2507"/>
<polygon fill="none" stroke="black" points="634.392,-49.8434 625.05,-54.8406 635.469,-56.7601 634.392,-49.8434"/>
</g>
<!-- \\ChillDev\\Bundle\\ViewHelpersBundle\\Templating\\Helper\\Meta -->
<g id="node17" class="node"><title>\\ChillDev\\Bundle\\ViewHelpersBundle\\Templating\\Helper\\Meta</title>
<a xlink:href="Templating.Helper.Meta.html" xlink:title="Meta" target="_parent">
<polygon fill="none" stroke="black" points="1082,-624 1028,-624 1028,-588 1082,-588 1082,-624"/>
<text text-anchor="middle" x="1055" y="-603.1" font-family="Courier,monospace" font-size="11.00">Meta</text>
</a>
</g>
<!-- \\ChillDev\\Bundle\\ViewHelpersBundle\\Templating\\Helper\\Meta&#45;&gt;\\Symfony\\Component\\Templating\\Helper\\Helper -->
<g id="edge56" class="edge"><title>\\ChillDev\\Bundle\\ViewHelpersBundle\\Templating\\Helper\\Meta&#45;&gt;\\Symfony\\Component\\Templating\\Helper\\Helper</title>
<path fill="none" stroke="black" d="M1027.87,-607.403C1002.32,-607.125 964.952,-602.301 944,-579 800.096,-418.963 1036.01,-247.261 880,-99 814.833,-37.0697 706.128,-40.7308 631.402,-52.9552"/>
<polygon fill="none" stroke="black" points="630.352,-49.5844 621.091,-54.731 631.54,-56.4828 630.352,-49.5844"/>
</g>
<!-- \\ChillDev\\Bundle\\ViewHelpersBundle\\Templating\\Helper\\Title -->
<g id="node18" class="node"><title>\\ChillDev\\Bundle\\ViewHelpersBundle\\Templating\\Helper\\Title</title>
<a xlink:href="Templating.Helper.Title.html" xlink:title="Title" target="_parent">
<polygon fill="none" stroke="black" points="1082,-678 1028,-678 1028,-642 1082,-642 1082,-678"/>
<text text-anchor="middle" x="1055" y="-657.1" font-family="Courier,monospace" font-size="11.00">Title</text>
</a>
</g>
<!-- \\ChillDev\\Bundle\\ViewHelpersBundle\\Templating\\Helper\\Title&#45;&gt;\\ChillDev\\Bundle\\ViewHelpersBundle\\Templating\\Container\\Words -->
<g id="edge58" class="edge"><title>\\ChillDev\\Bundle\\ViewHelpersBundle\\Templating\\Helper\\Title&#45;&gt;\\ChillDev\\Bundle\\ViewHelpersBundle\\Templating\\Container\\Words</title>
<path fill="none" stroke="black" d="M1027.8,-655.186C993.459,-649.251 932.512,-639.191 880,-633 774.176,-620.523 648.58,-611.959 587.332,-608.182"/>
<polygon fill="none" stroke="black" points="587.208,-604.669 577.014,-607.554 586.783,-611.656 587.208,-604.669"/>
</g>
<!-- \\Symfony\\Component\\Templating\\Helper\\HelperInterface -->
<g id="node69" class="node"><title>\\Symfony\\Component\\Templating\\Helper\\HelperInterface</title>
<ellipse fill="none" stroke="black" cx="550" cy="-126" rx="302.141" ry="18.3848"/>
<text text-anchor="middle" x="550" y="-122.4" font-family="Times Roman,serif" font-size="14.00" fill="gray">\\Symfony\\Component\\Templating\\Helper\\HelperInterface</text>
</g>
<!-- \\ChillDev\\Bundle\\ViewHelpersBundle\\Templating\\Helper\\Title&#45;&gt;\\Symfony\\Component\\Templating\\Helper\\HelperInterface -->
<g id="edge62" class="edge"><title>\\ChillDev\\Bundle\\ViewHelpersBundle\\Templating\\Helper\\Title&#45;&gt;\\Symfony\\Component\\Templating\\Helper\\HelperInterface</title>
<path fill="none" stroke="black" stroke-dasharray="1,5" d="M1027.87,-661.403C1002.32,-661.125 964.952,-656.301 944,-633 800.096,-472.963 1036.01,-301.261 880,-153 815.231,-91.4479 707.454,-94.6885 632.775,-106.732"/>
<polygon fill="none" stroke="black" points="631.737,-103.358 622.465,-108.484 632.91,-110.259 631.737,-103.358"/>
</g>
<!-- \\ChillDev\\Bundle\\ViewHelpersBundle\\Templating\\Link\\Element -->
<g id="node20" class="node"><title>\\ChillDev\\Bundle\\ViewHelpersBundle\\Templating\\Link\\Element</title>
<a xlink:href="Templating.Link.Element.html" xlink:title="Element" target="_parent">
<polygon fill="none" stroke="black" points="1087,-380 1023,-380 1023,-344 1087,-344 1087,-380"/>
<text text-anchor="middle" x="1055" y="-359.1" font-family="Courier,monospace" font-size="11.00">Element</text>
</a>
</g>
<!-- \\ChillDev\\Bundle\\ViewHelpersBundle\\ChillDevViewHelpersBundle -->
<g id="node24" class="node"><title>\\ChillDev\\Bundle\\ViewHelpersBundle\\ChillDevViewHelpersBundle</title>
<a xlink:href="ChillDevViewHelpersBundle.html" xlink:title="ChillDevViewHelpersBundle" target="_parent">
<polygon fill="none" stroke="black" points="1147,-320 963,-320 963,-284 1147,-284 1147,-320"/>
<text text-anchor="middle" x="1055" y="-299.1" font-family="Courier,monospace" font-size="11.00">ChillDevViewHelpersBundle</text>
</a>
</g>
<!-- \\Symfony\\Component\\HttpKernel\\Bundle\\Bundle -->
<g id="node56" class="node"><title>\\Symfony\\Component\\HttpKernel\\Bundle\\Bundle</title>
<ellipse fill="none" stroke="black" cx="550" cy="-18" rx="246.78" ry="18.3848"/>
<text text-anchor="middle" x="550" y="-14.4" font-family="Times Roman,serif" font-size="14.00" fill="gray">\Symfony\Component\HttpKernel\Bundle\Bundle</text>
</g>
<!-- \\ChillDev\\Bundle\\ViewHelpersBundle\\ChillDevViewHelpersBundle&#45;&gt;\\Symfony\\Component\\HttpKernel\\Bundle\\Bundle -->
<g id="edge44" class="edge"><title>\\ChillDev\\Bundle\\ViewHelpersBundle\\ChillDevViewHelpersBundle&#45;&gt;\\Symfony\\Component\\HttpKernel\\Bundle\\Bundle</title>
<path fill="none" stroke="black" d="M1048.96,-283.891C1031.65,-235.202 976.794,-101.364 880,-45 827.172,-14.2378 761.286,-4.37462 702.308,-3.35543"/>
<polygon fill="none" stroke="black" points="702.176,0.145786 692.146,-3.26501 702.114,-6.85394 702.176,0.145786"/>
</g>
</g>
</svg>
