<?xml version="1.0" encoding="UTF-8" standalone="no"?>
<!DOCTYPE svg PUBLIC "-//W3C//DTD SVG 1.1//EN"
 "http://www.w3.org/Graphics/SVG/1.1/DTD/svg11.dtd">
<!-- Generated by graphviz version 2.26.3 (20100126.1600)
 -->
<!-- Title: G Pages: 1 -->
<svg width="1206pt" height="1494pt"
 viewBox="0.00 0.00 1206.00 1494.00" xmlns="http://www.w3.org/2000/svg" xmlns:xlink="http://www.w3.org/1999/xlink">
<g id="graph1" class="graph" transform="scale(1 1) rotate(0) translate(4 1490)">
<title>G</title>
<polygon fill="white" stroke="white" points="-4,5 -4,-1490 1203,-1490 1203,5 -4,5"/>
<g id="graph2" class="cluster"><title>cluster_ChillDev</title>
<polyline fill="none" stroke="gray" points="495,-336 1178,-336 "/>
<path fill="none" stroke="gray" d="M1178,-336C1184,-336 1190,-342 1190,-348"/>
<polyline fill="none" stroke="gray" points="1190,-348 1190,-1466 "/>
<path fill="none" stroke="gray" d="M1190,-1466C1190,-1472 1184,-1478 1178,-1478"/>
<polyline fill="none" stroke="gray" points="1178,-1478 495,-1478 "/>
<path fill="none" stroke="gray" d="M495,-1478C489,-1478 483,-1472 483,-1466"/>
<polyline fill="none" stroke="gray" points="483,-1466 483,-348 "/>
<path fill="none" stroke="gray" d="M483,-348C483,-342 489,-336 495,-336"/>
<text text-anchor="middle" x="836.5" y="-1464.1" font-family="Times Roman,serif" font-size="11.00" fill="gray">ChillDev</text>
</g>
<g id="graph3" class="cluster"><title>cluster_ChillDev\Bundle</title>
<polyline fill="none" stroke="gray" points="503,-344 1170,-344 "/>
<path fill="none" stroke="gray" d="M1170,-344C1176,-344 1182,-350 1182,-356"/>
<polyline fill="none" stroke="gray" points="1182,-356 1182,-1436 "/>
<path fill="none" stroke="gray" d="M1182,-1436C1182,-1442 1176,-1448 1170,-1448"/>
<polyline fill="none" stroke="gray" points="1170,-1448 503,-1448 "/>
<path fill="none" stroke="gray" d="M503,-1448C497,-1448 491,-1442 491,-1436"/>
<polyline fill="none" stroke="gray" points="491,-1436 491,-356 "/>
<path fill="none" stroke="gray" d="M491,-356C491,-350 497,-344 503,-344"/>
<text text-anchor="middle" x="836.5" y="-1434.1" font-family="Times Roman,serif" font-size="11.00" fill="gray">Bundle</text>
</g>
<g id="graph4" class="cluster"><title>cluster_ChillDev\Bundle\ViewHelpersBundle</title>
<polyline fill="none" stroke="gray" points="511,-352 1162,-352 "/>
<path fill="none" stroke="gray" d="M1162,-352C1168,-352 1174,-358 1174,-364"/>
<polyline fill="none" stroke="gray" points="1174,-364 1174,-1406 "/>
<path fill="none" stroke="gray" d="M1174,-1406C1174,-1412 1168,-1418 1162,-1418"/>
<polyline fill="none" stroke="gray" points="1162,-1418 511,-1418 "/>
<path fill="none" stroke="gray" d="M511,-1418C505,-1418 499,-1412 499,-1406"/>
<polyline fill="none" stroke="gray" points="499,-1406 499,-364 "/>
<path fill="none" stroke="gray" d="M499,-364C499,-358 505,-352 511,-352"/>
<text text-anchor="middle" x="836.5" y="-1404.1" font-family="Times Roman,serif" font-size="11.00" fill="gray">ViewHelpersBundle</text>
</g>
<g id="graph5" class="cluster"><title>cluster_ChillDev\Bundle\ViewHelpersBundle\DependencyInjection</title>
<polyline fill="none" stroke="gray" points="956,-1260 1154,-1260 "/>
<path fill="none" stroke="gray" d="M1154,-1260C1160,-1260 1166,-1266 1166,-1272"/>
<polyline fill="none" stroke="gray" points="1166,-1272 1166,-1376 "/>
<path fill="none" stroke="gray" d="M1166,-1376C1166,-1382 1160,-1388 1154,-1388"/>
<polyline fill="none" stroke="gray" points="1154,-1388 956,-1388 "/>
<path fill="none" stroke="gray" d="M956,-1388C950,-1388 944,-1382 944,-1376"/>
<polyline fill="none" stroke="gray" points="944,-1376 944,-1272 "/>
<path fill="none" stroke="gray" d="M944,-1272C944,-1266 950,-1260 956,-1260"/>
<text text-anchor="middle" x="1055" y="-1374.1" font-family="Times Roman,serif" font-size="11.00" fill="gray">DependencyInjection</text>
</g>
<g id="graph6" class="cluster"><title>cluster_ChillDev\Bundle\ViewHelpersBundle\EventListener</title>
<polyline fill="none" stroke="gray" points="980,-1178 1130,-1178 "/>
<path fill="none" stroke="gray" d="M1130,-1178C1136,-1178 1142,-1184 1142,-1190"/>
<polyline fill="none" stroke="gray" points="1142,-1190 1142,-1240 "/>
<path fill="none" stroke="gray" d="M1142,-1240C1142,-1246 1136,-1252 1130,-1252"/>
<polyline fill="none" stroke="gray" points="1130,-1252 980,-1252 "/>
<path fill="none" stroke="gray" d="M980,-1252C974,-1252 968,-1246 968,-1240"/>
<polyline fill="none" stroke="gray" points="968,-1240 968,-1190 "/>
<path fill="none" stroke="gray" d="M968,-1190C968,-1184 974,-1178 980,-1178"/>
<text text-anchor="middle" x="1055" y="-1238.1" font-family="Times Roman,serif" font-size="11.00" fill="gray">EventListener</text>
</g>
<g id="graph7" class="cluster"><title>cluster_ChillDev\Bundle\ViewHelpersBundle\Templating</title>
<polyline fill="none" stroke="gray" points="519,-488 1101,-488 "/>
<path fill="none" stroke="gray" d="M1101,-488C1107,-488 1113,-494 1113,-500"/>
<polyline fill="none" stroke="gray" points="1113,-500 1113,-1158 "/>
<path fill="none" stroke="gray" d="M1113,-1158C1113,-1164 1107,-1170 1101,-1170"/>
<polyline fill="none" stroke="gray" points="1101,-1170 519,-1170 "/>
<path fill="none" stroke="gray" d="M519,-1170C513,-1170 507,-1164 507,-1158"/>
<polyline fill="none" stroke="gray" points="507,-1158 507,-500 "/>
<path fill="none" stroke="gray" d="M507,-500C507,-494 513,-488 519,-488"/>
<text text-anchor="middle" x="810" y="-1156.1" font-family="Times Roman,serif" font-size="11.00" fill="gray">Templating</text>
</g>
<g id="graph8" class="cluster"><title>cluster_ChillDev\Bundle\ViewHelpersBundle\Templating\Container</title>
<polyline fill="none" stroke="gray" points="527,-496 573,-496 "/>
<path fill="none" stroke="gray" d="M573,-496C579,-496 585,-502 585,-508"/>
<polyline fill="none" stroke="gray" points="585,-508 585,-612 "/>
<path fill="none" stroke="gray" d="M585,-612C585,-618 579,-624 573,-624"/>
<polyline fill="none" stroke="gray" points="573,-624 527,-624 "/>
<path fill="none" stroke="gray" d="M527,-624C521,-624 515,-618 515,-612"/>
<polyline fill="none" stroke="gray" points="515,-612 515,-508 "/>
<path fill="none" stroke="gray" d="M515,-508C515,-502 521,-496 527,-496"/>
<text text-anchor="middle" x="550" y="-610.1" font-family="Times Roman,serif" font-size="11.00" fill="gray">Container</text>
</g>
<g id="graph9" class="cluster"><title>cluster_ChillDev\Bundle\ViewHelpersBundle\Templating\Helper</title>
<polyline fill="none" stroke="gray" points="1017,-742 1093,-742 "/>
<path fill="none" stroke="gray" d="M1093,-742C1099,-742 1105,-748 1105,-754"/>
<polyline fill="none" stroke="gray" points="1105,-754 1105,-1128 "/>
<path fill="none" stroke="gray" d="M1105,-1128C1105,-1134 1099,-1140 1093,-1140"/>
<polyline fill="none" stroke="gray" points="1093,-1140 1017,-1140 "/>
<path fill="none" stroke="gray" d="M1017,-1140C1011,-1140 1005,-1134 1005,-1128"/>
<polyline fill="none" stroke="gray" points="1005,-1128 1005,-754 "/>
<path fill="none" stroke="gray" d="M1005,-754C1005,-748 1011,-742 1017,-742"/>
<text text-anchor="middle" x="1055" y="-1126.1" font-family="Times Roman,serif" font-size="11.00" fill="gray">Helper</text>
</g>
<g id="graph10" class="cluster"><title>cluster_ChillDev\Bundle\ViewHelpersBundle\Templating\Link</title>
<polyline fill="none" stroke="gray" points="1027,-660 1083,-660 "/>
<path fill="none" stroke="gray" d="M1083,-660C1089,-660 1095,-666 1095,-672"/>
<polyline fill="none" stroke="gray" points="1095,-672 1095,-722 "/>
<path fill="none" stroke="gray" d="M1095,-722C1095,-728 1089,-734 1083,-734"/>
<polyline fill="none" stroke="gray" points="1083,-734 1027,-734 "/>
<path fill="none" stroke="gray" d="M1027,-734C1021,-734 1015,-728 1015,-722"/>
<polyline fill="none" stroke="gray" points="1015,-722 1015,-672 "/>
<path fill="none" stroke="gray" d="M1015,-672C1015,-666 1021,-660 1027,-660"/>
<text text-anchor="middle" x="1055" y="-720.1" font-family="Times Roman,serif" font-size="11.00" fill="gray">Link</text>
</g>
<g id="graph11" class="cluster"><title>cluster_ChillDev\Bundle\ViewHelpersBundle\Templating\Script</title>
<polyline fill="none" stroke="gray" points="1027,-578 1083,-578 "/>
<path fill="none" stroke="gray" d="M1083,-578C1089,-578 1095,-584 1095,-590"/>
<polyline fill="none" stroke="gray" points="1095,-590 1095,-640 "/>
<path fill="none" stroke="gray" d="M1095,-640C1095,-646 1089,-652 1083,-652"/>
<polyline fill="none" stroke="gray" points="1083,-652 1027,-652 "/>
<path fill="none" stroke="gray" d="M1027,-652C1021,-652 1015,-646 1015,-640"/>
<polyline fill="none" stroke="gray" points="1015,-640 1015,-590 "/>
<path fill="none" stroke="gray" d="M1015,-590C1015,-584 1021,-578 1027,-578"/>
<text text-anchor="middle" x="1055" y="-638.1" font-family="Times Roman,serif" font-size="11.00" fill="gray">Script</text>
</g>
<g id="graph12" class="cluster"><title>cluster_ChillDev\Bundle\ViewHelpersBundle\Templating\Xhtml</title>
<polyline fill="none" stroke="gray" points="1027,-496 1083,-496 "/>
<path fill="none" stroke="gray" d="M1083,-496C1089,-496 1095,-502 1095,-508"/>
<polyline fill="none" stroke="gray" points="1095,-508 1095,-558 "/>
<path fill="none" stroke="gray" d="M1095,-558C1095,-564 1089,-570 1083,-570"/>
<polyline fill="none" stroke="gray" points="1083,-570 1027,-570 "/>
<path fill="none" stroke="gray" d="M1027,-570C1021,-570 1015,-564 1015,-558"/>
<polyline fill="none" stroke="gray" points="1015,-558 1015,-508 "/>
<path fill="none" stroke="gray" d="M1015,-508C1015,-502 1021,-496 1027,-496"/>
<text text-anchor="middle" x="1055" y="-556.1" font-family="Times Roman,serif" font-size="11.00" fill="gray">Xhtml</text>
</g>
<g id="graph18" class="cluster"><title>cluster_ChillDev\Bundle\ViewHelpersBundle\Utils</title>
<polyline fill="none" stroke="gray" points="1030,-406 1080,-406 "/>
<path fill="none" stroke="gray" d="M1080,-406C1086,-406 1092,-412 1092,-418"/>
<polyline fill="none" stroke="gray" points="1092,-418 1092,-468 "/>
<path fill="none" stroke="gray" d="M1092,-468C1092,-474 1086,-480 1080,-480"/>
<polyline fill="none" stroke="gray" points="1080,-480 1030,-480 "/>
<path fill="none" stroke="gray" d="M1030,-480C1024,-480 1018,-474 1018,-468"/>
<polyline fill="none" stroke="gray" points="1018,-468 1018,-418 "/>
<path fill="none" stroke="gray" d="M1018,-418C1018,-412 1024,-406 1030,-406"/>
<text text-anchor="middle" x="1055" y="-466.1" font-family="Times Roman,serif" font-size="11.00" fill="gray">Utils</text>
</g>
<!-- \\ChillDev\\Bundle\\ViewHelpersBundle\\DependencyInjection\\Configuration -->
<g id="node5" class="node"><title>\\ChillDev\\Bundle\\ViewHelpersBundle\\DependencyInjection\\Configuration</title>
<a xlink:href="DependencyInjection.Configuration.html" xlink:title="Configuration" target="_parent">
<polygon fill="none" stroke="black" points="1107,-1358 1003,-1358 1003,-1322 1107,-1322 1107,-1358"/>
<text text-anchor="middle" x="1055" y="-1337.1" font-family="Courier,monospace" font-size="11.00">Configuration</text>
</a>
</g>
<!-- \\Symfony\\Component\\Config\\Definition\\ConfigurationInterface -->
<g id="node94" class="node"><title>\\Symfony\\Component\\Config\\Definition\\ConfigurationInterface</title>
<ellipse fill="none" stroke="black" cx="550" cy="-310" rx="330.219" ry="18.3848"/>
<text text-anchor="middle" x="550" y="-306.4" font-family="Times Roman,serif" font-size="14.00" fill="gray">\\Symfony\\Component\\Config\\Definition\\ConfigurationInterface</text>
</g>
<!-- \\ChillDev\\Bundle\\ViewHelpersBundle\\DependencyInjection\\Configuration&#45;&gt;\\Symfony\\Component\\Config\\Definition\\ConfigurationInterface -->
<g id="edge84" class="edge"><title>\\ChillDev\\Bundle\\ViewHelpersBundle\\DependencyInjection\\Configuration&#45;&gt;\\Symfony\\Component\\Config\\Definition\\ConfigurationInterface</title>
<path fill="none" stroke="black" stroke-dasharray="1,5" d="M1002.81,-1340.04C981.44,-1337.2 958.394,-1329.92 944,-1313 825.412,-1173.63 979.105,-645.839 880,-492 823.424,-404.178 709.046,-355.106 630.979,-330.611"/>
<polygon fill="none" stroke="black" points="631.756,-327.188 621.169,-327.601 629.703,-333.88 631.756,-327.188"/>
</g>
<!-- \\ChillDev\\Bundle\\ViewHelpersBundle\\DependencyInjection\\ChillDevViewHelpersExtension -->
<g id="node6" class="node"><title>\\ChillDev\\Bundle\\ViewHelpersBundle\\DependencyInjection\\ChillDevViewHelpersExtension</title>
<a xlink:href="DependencyInjection.ChillDevViewHelpersExtension.html" xlink:title="ChillDevViewHelpersExtension" target="_parent">
<polygon fill="none" stroke="black" points="1158,-1304 952,-1304 952,-1268 1158,-1268 1158,-1304"/>
<text text-anchor="middle" x="1055" y="-1283.1" font-family="Courier,monospace" font-size="11.00">ChillDevViewHelpersExtension</text>
</a>
</g>
<!-- \\Symfony\\Component\\HttpKernel\\DependencyInjection\\Extension -->
<g id="node79" class="node"><title>\\Symfony\\Component\\HttpKernel\\DependencyInjection\\Extension</title>
<ellipse fill="none" stroke="black" cx="550" cy="-256" rx="329.012" ry="18.3848"/>
<text text-anchor="middle" x="550" y="-252.4" font-family="Times Roman,serif" font-size="14.00" fill="gray">\Symfony\Component\HttpKernel\DependencyInjection\Extension</text>
</g>
<!-- \\ChillDev\\Bundle\\ViewHelpersBundle\\DependencyInjection\\ChillDevViewHelpersExtension&#45;&gt;\\Symfony\\Component\\HttpKernel\\DependencyInjection\\Extension -->
<g id="edge62" class="edge"><title>\\ChillDev\\Bundle\\ViewHelpersBundle\\DependencyInjection\\ChillDevViewHelpersExtension&#45;&gt;\\Symfony\\Component\\HttpKernel\\DependencyInjection\\Extension</title>
<path fill="none" stroke="black" d="M957.088,-1267.97C952.224,-1264.59 947.795,-1260.63 944,-1256 806.696,-1088.36 1032,-437.44 880,-283 873.875,-276.777 864.557,-271.651 852.89,-267.448"/>
<polygon fill="none" stroke="black" points="853.637,-264.012 843.045,-264.273 851.488,-270.674 853.637,-264.012"/>
</g>
<!-- \\ChillDev\\Bundle\\ViewHelpersBundle\\EventListener\\XhtmlResponseListener -->
<g id="node8" class="node"><title>\\ChillDev\\Bundle\\ViewHelpersBundle\\EventListener\\XhtmlResponseListener</title>
<a xlink:href="EventListener.XhtmlResponseListener.html" xlink:title="XhtmlResponseListener" target="_parent">
<polygon fill="none" stroke="black" points="1134,-1222 976,-1222 976,-1186 1134,-1186 1134,-1222"/>
<text text-anchor="middle" x="1055" y="-1201.1" font-family="Courier,monospace" font-size="11.00">XhtmlResponseListener</text>
</a>
</g>
<!-- \\ChillDev\\Bundle\\ViewHelpersBundle\\Templating\\Container\\Meta -->
<g id="node11" class="node"><title>\\ChillDev\\Bundle\\ViewHelpersBundle\\Templating\\Container\\Meta</title>
<a xlink:href="Templating.Container.Meta.html" xlink:title="Meta" target="_parent">
<polygon fill="none" stroke="black" points="577,-594 523,-594 523,-558 577,-558 577,-594"/>
<text text-anchor="middle" x="550" y="-573.1" font-family="Courier,monospace" font-size="11.00">Meta</text>
</a>
</g>
<!-- \\ArrayObject -->
<g id="node83" class="node"><title>\\ArrayObject</title>
<ellipse fill="none" stroke="black" cx="74" cy="-339" rx="73.0388" ry="18.3848"/>
<text text-anchor="middle" x="74" y="-335.4" font-family="Times Roman,serif" font-size="14.00" fill="gray">\ArrayObject</text>
</g>
<!-- \\ChillDev\\Bundle\\ViewHelpersBundle\\Templating\\Container\\Meta&#45;&gt;\\ArrayObject -->
<g id="edge66" class="edge"><title>\\ChillDev\\Bundle\\ViewHelpersBundle\\Templating\\Container\\Meta&#45;&gt;\\ArrayObject</title>
<path fill="none" stroke="black" d="M522.949,-581.07C463.551,-590.735 319.131,-606.082 220,-549 147.584,-507.301 102.738,-413.425 84.0614,-366.619"/>
<polygon fill="none" stroke="black" points="87.2539,-365.171 80.3724,-357.115 80.7283,-367.704 87.2539,-365.171"/>
</g>
<!-- \\ChillDev\\Bundle\\ViewHelpersBundle\\Templating\\Container\\Words -->
<g id="node12" class="node"><title>\\ChillDev\\Bundle\\ViewHelpersBundle\\Templating\\Container\\Words</title>
<a xlink:href="Templating.Container.Words.html" xlink:title="Words" target="_parent">
<polygon fill="none" stroke="black" points="577,-540 523,-540 523,-504 577,-504 577,-540"/>
<text text-anchor="middle" x="550" y="-519.1" font-family="Courier,monospace" font-size="11.00">Words</text>
</a>
</g>
<!-- \\ChillDev\\Bundle\\ViewHelpersBundle\\Templating\\Container\\Words&#45;&gt;\\ArrayObject -->
<g id="edge68" class="edge"><title>\\ChillDev\\Bundle\\ViewHelpersBundle\\Templating\\Container\\Words&#45;&gt;\\ArrayObject</title>
<path fill="none" stroke="black" d="M522.62,-526.745C463.786,-535.586 322.352,-549.491 220,-500 159.09,-470.548 111.88,-403.371 89.06,-365.763"/>
<polygon fill="none" stroke="black" points="91.9025,-363.694 83.7902,-356.879 85.8821,-367.266 91.9025,-363.694"/>
</g>
<!-- \\ChillDev\\Bundle\\ViewHelpersBundle\\Templating\\Helper\\Xhtml -->
<g id="node14" class="node"><title>\\ChillDev\\Bundle\\ViewHelpersBundle\\Templating\\Helper\\Xhtml</title>
<a xlink:href="Templating.Helper.Xhtml.html" xlink:title="Xhtml" target="_parent">
<polygon fill="none" stroke="black" points="1082,-1110 1028,-1110 1028,-1074 1082,-1074 1082,-1110"/>
<text text-anchor="middle" x="1055" y="-1089.1" font-family="Courier,monospace" font-size="11.00">Xhtml</text>
</a>
</g>
<!-- \\Symfony\\Component\\Templating\\Helper\\Helper -->
<g id="node86" class="node"><title>\\Symfony\\Component\\Templating\\Helper\\Helper</title>
<ellipse fill="none" stroke="black" cx="550" cy="-202" rx="243.245" ry="18.3848"/>
<text text-anchor="middle" x="550" y="-198.4" font-family="Times Roman,serif" font-size="14.00" fill="gray">\Symfony\Component\Templating\Helper\Helper</text>
</g>
<!-- \\ChillDev\\Bundle\\ViewHelpersBundle\\Templating\\Helper\\Xhtml&#45;&gt;\\Symfony\\Component\\Templating\\Helper\\Helper -->
<g id="edge70" class="edge"><title>\\ChillDev\\Bundle\\ViewHelpersBundle\\Templating\\Helper\\Xhtml&#45;&gt;\\Symfony\\Component\\Templating\\Helper\\Helper</title>
<path fill="none" stroke="black" d="M1027.57,-1093.66C1001.82,-1093.57 964.29,-1088.88 944,-1065 823.357,-923.011 1011.4,-361.093 880,-229 815.401,-164.062 703.366,-169.504 627.976,-182.87"/>
<polygon fill="none" stroke="black" points="627.244,-179.446 618.051,-184.712 628.522,-186.328 627.244,-179.446"/>
</g>
<!-- \\ChillDev\\Bundle\\ViewHelpersBundle\\Templating\\Helper\\Serializer -->
<g id="node15" class="node"><title>\\ChillDev\\Bundle\\ViewHelpersBundle\\Templating\\Helper\\Serializer</title>
<a xlink:href="Templating.Helper.Serializer.html" xlink:title="Serializer" target="_parent">
<polygon fill="none" stroke="black" points="1097,-948 1013,-948 1013,-912 1097,-912 1097,-948"/>
<text text-anchor="middle" x="1055" y="-927.1" font-family="Courier,monospace" font-size="11.00">Serializer</text>
</a>
</g>
<!-- \\ChillDev\\Bundle\\ViewHelpersBundle\\Templating\\Helper\\Serializer&#45;&gt;\\Symfony\\Component\\Templating\\Helper\\Helper -->
<g id="edge72" class="edge"><title>\\ChillDev\\Bundle\\ViewHelpersBundle\\Templating\\Helper\\Serializer&#45;&gt;\\Symfony\\Component\\Templating\\Helper\\Helper</title>
<path fill="none" stroke="black" d="M1012.79,-930.963C989.015,-929.101 960.808,-922.42 944,-903 845.54,-789.24 987.076,-334.69 880,-229 815.202,-165.041 704.263,-169.89 629.083,-182.887"/>
<polygon fill="none" stroke="black" points="628.396,-179.454 619.18,-184.681 629.644,-186.342 628.396,-179.454"/>
</g>
<!-- \\ChillDev\\Bundle\\ViewHelpersBundle\\Templating\\Helper\\Link -->
<g id="node16" class="node"><title>\\ChillDev\\Bundle\\ViewHelpersBundle\\Templating\\Helper\\Link</title>
<a xlink:href="Templating.Helper.Link.html" xlink:title="Link" target="_parent">
<polygon fill="none" stroke="black" points="1082,-894 1028,-894 1028,-858 1082,-858 1082,-894"/>
<text text-anchor="middle" x="1055" y="-873.1" font-family="Courier,monospace" font-size="11.00">Link</text>
</a>
</g>
<!-- \\ChillDev\\Bundle\\ViewHelpersBundle\\Templating\\Helper\\Link&#45;&gt;\\ArrayObject -->
<g id="edge74" class="edge"><title>\\ChillDev\\Bundle\\ViewHelpersBundle\\Templating\\Helper\\Link&#45;&gt;\\ArrayObject</title>
<path fill="none" stroke="black" d="M1027.67,-877.576C1001.98,-877.425 964.507,-872.694 944,-849 845.54,-735.24 991.3,-276.232 880,-175 825.75,-125.657 286.909,-144.984 220,-175 157.316,-203.121 110.53,-272.93 88.3259,-311.792"/>
<polygon fill="none" stroke="black" points="85.0267,-310.523 83.2156,-320.962 91.1412,-313.931 85.0267,-310.523"/>
</g>
<!-- \\Symfony\\Component\\Templating\\Helper\\HelperInterface -->
<g id="node96" class="node"><title>\\Symfony\\Component\\Templating\\Helper\\HelperInterface</title>
<ellipse fill="none" stroke="black" cx="550" cy="-110" rx="302.141" ry="18.3848"/>
<text text-anchor="middle" x="550" y="-106.4" font-family="Times Roman,serif" font-size="14.00" fill="gray">\\Symfony\\Component\\Templating\\Helper\\HelperInterface</text>
</g>
<!-- \\ChillDev\\Bundle\\ViewHelpersBundle\\Templating\\Helper\\Link&#45;&gt;\\Symfony\\Component\\Templating\\Helper\\HelperInterface -->
<g id="edge86" class="edge"><title>\\ChillDev\\Bundle\\ViewHelpersBundle\\Templating\\Helper\\Link&#45;&gt;\\Symfony\\Component\\Templating\\Helper\\HelperInterface</title>
<path fill="none" stroke="black" stroke-dasharray="1,5" d="M1027.65,-877.596C1001.94,-877.46 964.455,-872.739 944,-849 841.024,-729.493 991.192,-253.904 880,-142 817.876,-79.4773 712.003,-80.3009 636.945,-91.0596"/>
<polygon fill="none" stroke="black" points="636.39,-87.6036 627.029,-92.564 637.44,-94.5244 636.39,-87.6036"/>
</g>
<!-- \\ChillDev\\Bundle\\ViewHelpersBundle\\Templating\\Helper\\Meta -->
<g id="node17" class="node"><title>\\ChillDev\\Bundle\\ViewHelpersBundle\\Templating\\Helper\\Meta</title>
<a xlink:href="Templating.Helper.Meta.html" xlink:title="Meta" target="_parent">
<polygon fill="none" stroke="black" points="1082,-1002 1028,-1002 1028,-966 1082,-966 1082,-1002"/>
<text text-anchor="middle" x="1055" y="-981.1" font-family="Courier,monospace" font-size="11.00">Meta</text>
</a>
</g>
<!-- \\ChillDev\\Bundle\\ViewHelpersBundle\\Templating\\Helper\\Meta&#45;&gt;\\Symfony\\Component\\Templating\\Helper\\Helper -->
<g id="edge76" class="edge"><title>\\ChillDev\\Bundle\\ViewHelpersBundle\\Templating\\Helper\\Meta&#45;&gt;\\Symfony\\Component\\Templating\\Helper\\Helper</title>
<path fill="none" stroke="black" d="M1027.63,-985.607C1001.92,-985.48 964.424,-980.765 944,-957 838.149,-833.834 995.182,-343.487 880,-229 815.231,-164.621 703.762,-169.748 628.499,-182.907"/>
<polygon fill="none" stroke="black" points="627.794,-179.478 618.588,-184.722 629.055,-186.363 627.794,-179.478"/>
</g>
<!-- \\ChillDev\\Bundle\\ViewHelpersBundle\\Templating\\Helper\\Script -->
<g id="node18" class="node"><title>\\ChillDev\\Bundle\\ViewHelpersBundle\\Templating\\Helper\\Script</title>
<a xlink:href="Templating.Helper.Script.html" xlink:title="Script" target="_parent">
<polygon fill="none" stroke="black" points="1083,-840 1027,-840 1027,-804 1083,-804 1083,-840"/>
<text text-anchor="middle" x="1055" y="-819.1" font-family="Courier,monospace" font-size="11.00">Script</text>
</a>
</g>
<!-- \\ChillDev\\Bundle\\ViewHelpersBundle\\Templating\\Helper\\Script&#45;&gt;\\ArrayObject -->
<g id="edge78" class="edge"><title>\\ChillDev\\Bundle\\ViewHelpersBundle\\Templating\\Helper\\Script&#45;&gt;\\ArrayObject</title>
<path fill="none" stroke="black" d="M1026.17,-823.586C1000.52,-823.279 964.059,-818.294 944,-795 840.339,-674.622 994.121,-193.512 880,-83 827.232,-31.9008 621.665,-80.1147 550,-64"/>
</g>
<!-- \\ChillDev\\Bundle\\ViewHelpersBundle\\Templating\\Helper\\Script&#45;&gt;\\Symfony\\Component\\Templating\\Helper\\HelperInterface -->
<g id="edge88" class="edge"><title>\\ChillDev\\Bundle\\ViewHelpersBundle\\Templating\\Helper\\Script&#45;&gt;\\Symfony\\Component\\Templating\\Helper\\HelperInterface</title>
<path fill="none" stroke="black" stroke-dasharray="1,5" d="M1026.21,-823.548C1000.59,-823.215 964.153,-818.213 944,-795 848.413,-684.897 983.154,-245.048 880,-142 817.839,-79.9028 712.478,-80.4823 637.537,-91.0716"/>
<polygon fill="none" stroke="black" points="637.005,-87.6121 627.634,-92.5536 638.041,-94.535 637.005,-87.6121"/>
</g>
<!-- \\ChillDev\\Bundle\\ViewHelpersBundle\\Templating\\Helper\\Title -->
<g id="node19" class="node"><title>\\ChillDev\\Bundle\\ViewHelpersBundle\\Templating\\Helper\\Title</title>
<a xlink:href="Templating.Helper.Title.html" xlink:title="Title" target="_parent">
<polygon fill="none" stroke="black" points="1082,-1056 1028,-1056 1028,-1020 1082,-1020 1082,-1056"/>
<text text-anchor="middle" x="1055" y="-1035.1" font-family="Courier,monospace" font-size="11.00">Title</text>
</a>
</g>
<!-- \\ChillDev\\Bundle\\ViewHelpersBundle\\Templating\\Helper\\Title&#45;&gt;\\ChillDev\\Bundle\\ViewHelpersBundle\\Templating\\Container\\Words -->
<g id="edge80" class="edge"><title>\\ChillDev\\Bundle\\ViewHelpersBundle\\Templating\\Helper\\Title&#45;&gt;\\ChillDev\\Bundle\\ViewHelpersBundle\\Templating\\Container\\Words</title>
<path fill="none" stroke="black" d="M1027.89,-1039.38C1002.37,-1039.08 965.011,-1034.25 944,-1011 805.004,-857.212 1030.63,-691.417 880,-549 838.761,-510.009 664.803,-515.104 587.404,-519.473"/>
<polygon fill="none" stroke="black" points="586.923,-515.996 577.147,-520.08 587.337,-522.983 586.923,-515.996"/>
</g>
<!-- \\ChillDev\\Bundle\\ViewHelpersBundle\\Templating\\Helper\\Title&#45;&gt;\\Symfony\\Component\\Templating\\Helper\\HelperInterface -->
<g id="edge90" class="edge"><title>\\ChillDev\\Bundle\\ViewHelpersBundle\\Templating\\Helper\\Title&#45;&gt;\\Symfony\\Component\\Templating\\Helper\\HelperInterface</title>
<path fill="none" stroke="black" stroke-dasharray="1,5" d="M1027.57,-1039.66C1001.82,-1039.57 964.29,-1034.88 944,-1011 823.357,-869.011 1003.75,-314.293 880,-175 859.441,-151.858 833.245,-135.513 804.629,-124.142"/>
<polygon fill="none" stroke="black" points="805.85,-120.862 795.257,-120.623 803.389,-127.415 805.85,-120.862"/>
</g>
<!-- \\ChillDev\\Bundle\\ViewHelpersBundle\\Templating\\Helper\\Xmlns -->
<g id="node20" class="node"><title>\\ChillDev\\Bundle\\ViewHelpersBundle\\Templating\\Helper\\Xmlns</title>
<a xlink:href="Templating.Helper.Xmlns.html" xlink:title="Xmlns" target="_parent">
<polygon fill="none" stroke="black" points="1082,-786 1028,-786 1028,-750 1082,-750 1082,-786"/>
<text text-anchor="middle" x="1055" y="-765.1" font-family="Courier,monospace" font-size="11.00">Xmlns</text>
</a>
</g>
<!-- \\ChillDev\\Bundle\\ViewHelpersBundle\\Templating\\Helper\\Xmlns&#45;&gt;\\ArrayObject -->
<g id="edge82" class="edge"><title>\\ChillDev\\Bundle\\ViewHelpersBundle\\Templating\\Helper\\Xmlns&#45;&gt;\\ArrayObject</title>
<path fill="none" stroke="black" d="M1027.61,-768.763C1001.88,-767.864 964.37,-762.08 944,-738 849.547,-626.342 985.455,-184.331 880,-83 827.034,-32.1058 621.665,-80.1147 550,-64"/>
<path fill="none" stroke="black" d="M550,-64C478.335,-47.8853 282.429,-44.2934 220,-83 135.233,-135.556 94.9048,-256.511 80.4889,-311.223"/>
<polygon fill="none" stroke="black" points="77.0904,-310.386 78.0195,-320.94 83.8748,-312.11 77.0904,-310.386"/>
</g>
<!-- \\ChillDev\\Bundle\\ViewHelpersBundle\\Templating\\Helper\\Xmlns&#45;&gt;\\Symfony\\Component\\Templating\\Helper\\HelperInterface -->
<g id="edge92" class="edge"><title>\\ChillDev\\Bundle\\ViewHelpersBundle\\Templating\\Helper\\Xmlns&#45;&gt;\\Symfony\\Component\\Templating\\Helper\\HelperInterface</title>
<path fill="none" stroke="black" stroke-dasharray="1,5" d="M1027.66,-768.72C1001.97,-767.789 964.485,-761.983 944,-738 857.485,-636.713 974.675,-235.704 880,-142 817.874,-80.5113 713.334,-80.7118 638.56,-91.0509"/>
<polygon fill="none" stroke="black" points="637.598,-87.6545 628.214,-92.5717 638.617,-94.5801 637.598,-87.6545"/>
</g>
<!-- \\ChillDev\\Bundle\\ViewHelpersBundle\\Templating\\Link\\Element -->
<g id="node22" class="node"><title>\\ChillDev\\Bundle\\ViewHelpersBundle\\Templating\\Link\\Element</title>
<a xlink:href="Templating.Link.Element.html" xlink:title="Element" target="_parent">
<polygon fill="none" stroke="black" points="1087,-704 1023,-704 1023,-668 1087,-668 1087,-704"/>
<text text-anchor="middle" x="1055" y="-683.1" font-family="Courier,monospace" font-size="11.00">Element</text>
</a>
</g>
<!-- \\ChillDev\\Bundle\\ViewHelpersBundle\\Templating\\Script\\Element -->
<g id="node24" class="node"><title>\\ChillDev\\Bundle\\ViewHelpersBundle\\Templating\\Script\\Element</title>
<a xlink:href="Templating.Script.Element.html" xlink:title="Element" target="_parent">
<polygon fill="none" stroke="black" points="1087,-622 1023,-622 1023,-586 1087,-586 1087,-622"/>
<text text-anchor="middle" x="1055" y="-601.1" font-family="Courier,monospace" font-size="11.00">Element</text>
</a>
</g>
<!-- \\ChillDev\\Bundle\\ViewHelpersBundle\\Templating\\Xhtml\\Checker -->
<g id="node26" class="node"><title>\\ChillDev\\Bundle\\ViewHelpersBundle\\Templating\\Xhtml\\Checker</title>
<a xlink:href="Templating.Xhtml.Checker.html" xlink:title="Checker" target="_parent">
<polygon fill="none" stroke="black" points="1087,-540 1023,-540 1023,-504 1087,-504 1087,-540"/>
<text text-anchor="middle" x="1055" y="-519.1" font-family="Courier,monospace" font-size="11.00">Checker</text>
</a>
</g>
<!-- \\ChillDev\\Bundle\\ViewHelpersBundle\\Utils\\Markup -->
<g id="node33" class="node"><title>\\ChillDev\\Bundle\\ViewHelpersBundle\\Utils\\Markup</title>
<a xlink:href="Utils.Markup.html" xlink:title="Markup" target="_parent">
<polygon fill="none" stroke="black" points="1083,-450 1027,-450 1027,-414 1083,-414 1083,-450"/>
<text text-anchor="middle" x="1055" y="-429.1" font-family="Courier,monospace" font-size="11.00">Markup</text>
</a>
</g>
<!-- \\ChillDev\\Bundle\\ViewHelpersBundle\\ChillDevViewHelpersBundle -->
<g id="node34" class="node"><title>\\ChillDev\\Bundle\\ViewHelpersBundle\\ChillDevViewHelpersBundle</title>
<a xlink:href="ChillDevViewHelpersBundle.html" xlink:title="ChillDevViewHelpersBundle" target="_parent">
<polygon fill="none" stroke="black" points="1147,-396 963,-396 963,-360 1147,-360 1147,-396"/>
<text text-anchor="middle" x="1055" y="-375.1" font-family="Courier,monospace" font-size="11.00">ChillDevViewHelpersBundle</text>
</a>
</g>
<!-- \\Symfony\\Component\\HttpKernel\\Bundle\\Bundle -->
<g id="node81" class="node"><title>\\Symfony\\Component\\HttpKernel\\Bundle\\Bundle</title>
<ellipse fill="none" stroke="black" cx="550" cy="-18" rx="246.78" ry="18.3848"/>
<text text-anchor="middle" x="550" y="-14.4" font-family="Times Roman,serif" font-size="14.00" fill="gray">\Symfony\Component\HttpKernel\Bundle\Bundle</text>
</g>
<!-- \\ChillDev\\Bundle\\ViewHelpersBundle\\ChillDevViewHelpersBundle&#45;&gt;\\Symfony\\Component\\HttpKernel\\Bundle\\Bundle -->
<g id="edge64" class="edge"><title>\\ChillDev\\Bundle\\ViewHelpersBundle\\ChillDevViewHelpersBundle&#45;&gt;\\Symfony\\Component\\HttpKernel\\Bundle\\Bundle</title>
<path fill="none" stroke="black" d="M1051.52,-359.808C1039.56,-302.71 994.335,-126.334 880,-50 826.83,-14.502 757.681,-3.78261 696.425,-3.02297"/>
<polygon fill="none" stroke="black" points="696.285,0.477463 686.272,-2.98615 696.259,-6.52249 696.285,0.477463"/>
</g>
</g>
</svg>
