<?xml version="1.0" encoding="UTF-8" standalone="no"?>
<!DOCTYPE svg PUBLIC "-//W3C//DTD SVG 1.1//EN"
 "http://www.w3.org/Graphics/SVG/1.1/DTD/svg11.dtd">
<!-- Generated by graphviz version 2.26.3 (20100126.1600)
 -->
<!-- Title: G Pages: 1 -->
<svg width="1322pt" height="2073pt"
 viewBox="0.00 0.00 1322.00 2072.70" xmlns="http://www.w3.org/2000/svg" xmlns:xlink="http://www.w3.org/1999/xlink">
<g id="graph1" class="graph" transform="scale(1 1) rotate(0) translate(4 2068.7)">
<title>G</title>
<polygon fill="white" stroke="white" points="-4,5 -4,-2068.7 1319,-2068.7 1319,5 -4,5"/>
<g id="graph2" class="cluster"><title>cluster_ChillDev</title>
<polyline fill="none" stroke="gray" points="503,-394.699 1294,-394.699 "/>
<path fill="none" stroke="gray" d="M1294,-394.699C1300,-394.699 1306,-400.699 1306,-406.699"/>
<polyline fill="none" stroke="gray" points="1306,-406.699 1306,-2044.7 "/>
<path fill="none" stroke="gray" d="M1306,-2044.7C1306,-2050.7 1300,-2056.7 1294,-2056.7"/>
<polyline fill="none" stroke="gray" points="1294,-2056.7 503,-2056.7 "/>
<path fill="none" stroke="gray" d="M503,-2056.7C497,-2056.7 491,-2050.7 491,-2044.7"/>
<polyline fill="none" stroke="gray" points="491,-2044.7 491,-406.699 "/>
<path fill="none" stroke="gray" d="M491,-406.699C491,-400.699 497,-394.699 503,-394.699"/>
<text text-anchor="middle" x="898.5" y="-2042.8" font-family="Times Roman,serif" font-size="11.00" fill="gray">ChillDev</text>
</g>
<g id="graph3" class="cluster"><title>cluster_ChillDev\Bundle</title>
<polyline fill="none" stroke="gray" points="511,-402.699 1286,-402.699 "/>
<path fill="none" stroke="gray" d="M1286,-402.699C1292,-402.699 1298,-408.699 1298,-414.699"/>
<polyline fill="none" stroke="gray" points="1298,-414.699 1298,-2014.7 "/>
<path fill="none" stroke="gray" d="M1298,-2014.7C1298,-2020.7 1292,-2026.7 1286,-2026.7"/>
<polyline fill="none" stroke="gray" points="1286,-2026.7 511,-2026.7 "/>
<path fill="none" stroke="gray" d="M511,-2026.7C505,-2026.7 499,-2020.7 499,-2014.7"/>
<polyline fill="none" stroke="gray" points="499,-2014.7 499,-414.699 "/>
<path fill="none" stroke="gray" d="M499,-414.699C499,-408.699 505,-402.699 511,-402.699"/>
<text text-anchor="middle" x="898.5" y="-2012.8" font-family="Times Roman,serif" font-size="11.00" fill="gray">Bundle</text>
</g>
<g id="graph4" class="cluster"><title>cluster_ChillDev\Bundle\ViewHelpersBundle</title>
<polyline fill="none" stroke="gray" points="519,-410.699 1278,-410.699 "/>
<path fill="none" stroke="gray" d="M1278,-410.699C1284,-410.699 1290,-416.699 1290,-422.699"/>
<polyline fill="none" stroke="gray" points="1290,-422.699 1290,-1984.7 "/>
<path fill="none" stroke="gray" d="M1290,-1984.7C1290,-1990.7 1284,-1996.7 1278,-1996.7"/>
<polyline fill="none" stroke="gray" points="1278,-1996.7 519,-1996.7 "/>
<path fill="none" stroke="gray" d="M519,-1996.7C513,-1996.7 507,-1990.7 507,-1984.7"/>
<polyline fill="none" stroke="gray" points="507,-1984.7 507,-422.699 "/>
<path fill="none" stroke="gray" d="M507,-422.699C507,-416.699 513,-410.699 519,-410.699"/>
<text text-anchor="middle" x="898.5" y="-1982.8" font-family="Times Roman,serif" font-size="11.00" fill="gray">ViewHelpersBundle</text>
</g>
<g id="graph5" class="cluster"><title>cluster_ChillDev\Bundle\ViewHelpersBundle\DependencyInjection</title>
<polyline fill="none" stroke="gray" points="1072,-1754.7 1270,-1754.7 "/>
<path fill="none" stroke="gray" d="M1270,-1754.7C1276,-1754.7 1282,-1760.7 1282,-1766.7"/>
<polyline fill="none" stroke="gray" points="1282,-1766.7 1282,-1954.7 "/>
<path fill="none" stroke="gray" d="M1282,-1954.7C1282,-1960.7 1276,-1966.7 1270,-1966.7"/>
<polyline fill="none" stroke="gray" points="1270,-1966.7 1072,-1966.7 "/>
<path fill="none" stroke="gray" d="M1072,-1966.7C1066,-1966.7 1060,-1960.7 1060,-1954.7"/>
<polyline fill="none" stroke="gray" points="1060,-1954.7 1060,-1766.7 "/>
<path fill="none" stroke="gray" d="M1060,-1766.7C1060,-1760.7 1066,-1754.7 1072,-1754.7"/>
<text text-anchor="middle" x="1171" y="-1952.8" font-family="Times Roman,serif" font-size="11.00" fill="gray">DependencyInjection</text>
</g>
<g id="graph6" class="cluster"><title>cluster_ChillDev\Bundle\ViewHelpersBundle\DependencyInjection\Compiler</title>
<polyline fill="none" stroke="gray" points="1099,-1862.7 1243,-1862.7 "/>
<path fill="none" stroke="gray" d="M1243,-1862.7C1249,-1862.7 1255,-1868.7 1255,-1874.7"/>
<polyline fill="none" stroke="gray" points="1255,-1874.7 1255,-1924.7 "/>
<path fill="none" stroke="gray" d="M1255,-1924.7C1255,-1930.7 1249,-1936.7 1243,-1936.7"/>
<polyline fill="none" stroke="gray" points="1243,-1936.7 1099,-1936.7 "/>
<path fill="none" stroke="gray" d="M1099,-1936.7C1093,-1936.7 1087,-1930.7 1087,-1924.7"/>
<polyline fill="none" stroke="gray" points="1087,-1924.7 1087,-1874.7 "/>
<path fill="none" stroke="gray" d="M1087,-1874.7C1087,-1868.7 1093,-1862.7 1099,-1862.7"/>
<text text-anchor="middle" x="1171" y="-1922.8" font-family="Times Roman,serif" font-size="11.00" fill="gray">Compiler</text>
</g>
<g id="graph8" class="cluster"><title>cluster_ChillDev\Bundle\ViewHelpersBundle\EventListener</title>
<polyline fill="none" stroke="gray" points="1096,-1672.7 1246,-1672.7 "/>
<path fill="none" stroke="gray" d="M1246,-1672.7C1252,-1672.7 1258,-1678.7 1258,-1684.7"/>
<polyline fill="none" stroke="gray" points="1258,-1684.7 1258,-1734.7 "/>
<path fill="none" stroke="gray" d="M1258,-1734.7C1258,-1740.7 1252,-1746.7 1246,-1746.7"/>
<polyline fill="none" stroke="gray" points="1246,-1746.7 1096,-1746.7 "/>
<path fill="none" stroke="gray" d="M1096,-1746.7C1090,-1746.7 1084,-1740.7 1084,-1734.7"/>
<polyline fill="none" stroke="gray" points="1084,-1734.7 1084,-1684.7 "/>
<path fill="none" stroke="gray" d="M1084,-1684.7C1084,-1678.7 1090,-1672.7 1096,-1672.7"/>
<text text-anchor="middle" x="1171" y="-1732.8" font-family="Times Roman,serif" font-size="11.00" fill="gray">EventListener</text>
</g>
<g id="graph9" class="cluster"><title>cluster_ChillDev\Bundle\ViewHelpersBundle\PathResolver</title>
<polyline fill="none" stroke="gray" points="527,-1398.7 1244,-1398.7 "/>
<path fill="none" stroke="gray" d="M1244,-1398.7C1250,-1398.7 1256,-1404.7 1256,-1410.7"/>
<polyline fill="none" stroke="gray" points="1256,-1410.7 1256,-1652.7 "/>
<path fill="none" stroke="gray" d="M1256,-1652.7C1256,-1658.7 1250,-1664.7 1244,-1664.7"/>
<polyline fill="none" stroke="gray" points="1244,-1664.7 527,-1664.7 "/>
<path fill="none" stroke="gray" d="M527,-1664.7C521,-1664.7 515,-1658.7 515,-1652.7"/>
<polyline fill="none" stroke="gray" points="515,-1652.7 515,-1410.7 "/>
<path fill="none" stroke="gray" d="M515,-1410.7C515,-1404.7 521,-1398.7 527,-1398.7"/>
<text text-anchor="middle" x="885.5" y="-1650.8" font-family="Times Roman,serif" font-size="11.00" fill="gray">PathResolver</text>
</g>
<g id="graph10" class="cluster"><title>cluster_ChillDev\Bundle\ViewHelpersBundle\PathResolver\Transformer</title>
<polyline fill="none" stroke="gray" points="535,-1452.7 1236,-1452.7 "/>
<path fill="none" stroke="gray" d="M1236,-1452.7C1242,-1452.7 1248,-1458.7 1248,-1464.7"/>
<polyline fill="none" stroke="gray" points="1248,-1464.7 1248,-1622.7 "/>
<path fill="none" stroke="gray" d="M1248,-1622.7C1248,-1628.7 1242,-1634.7 1236,-1634.7"/>
<polyline fill="none" stroke="gray" points="1236,-1634.7 535,-1634.7 "/>
<path fill="none" stroke="gray" d="M535,-1634.7C529,-1634.7 523,-1628.7 523,-1622.7"/>
<polyline fill="none" stroke="gray" points="523,-1622.7 523,-1464.7 "/>
<path fill="none" stroke="gray" d="M523,-1464.7C523,-1458.7 529,-1452.7 535,-1452.7"/>
<text text-anchor="middle" x="885.5" y="-1620.8" font-family="Times Roman,serif" font-size="11.00" fill="gray">Transformer</text>
</g>
<g id="graph12" class="cluster"><title>cluster_ChillDev\Bundle\ViewHelpersBundle\Templating</title>
<polyline fill="none" stroke="gray" points="576,-546.699 1217,-546.699 "/>
<path fill="none" stroke="gray" d="M1217,-546.699C1223,-546.699 1229,-552.699 1229,-558.699"/>
<polyline fill="none" stroke="gray" points="1229,-558.699 1229,-1378.7 "/>
<path fill="none" stroke="gray" d="M1229,-1378.7C1229,-1384.7 1223,-1390.7 1217,-1390.7"/>
<polyline fill="none" stroke="gray" points="1217,-1390.7 576,-1390.7 "/>
<path fill="none" stroke="gray" d="M576,-1390.7C570,-1390.7 564,-1384.7 564,-1378.7"/>
<polyline fill="none" stroke="gray" points="564,-1378.7 564,-558.699 "/>
<path fill="none" stroke="gray" d="M564,-558.699C564,-552.699 570,-546.699 576,-546.699"/>
<text text-anchor="middle" x="896.5" y="-1376.8" font-family="Times Roman,serif" font-size="11.00" fill="gray">Templating</text>
</g>
<g id="graph13" class="cluster"><title>cluster_ChillDev\Bundle\ViewHelpersBundle\Templating\Container</title>
<polyline fill="none" stroke="gray" points="584,-554.699 630,-554.699 "/>
<path fill="none" stroke="gray" d="M630,-554.699C636,-554.699 642,-560.699 642,-566.699"/>
<polyline fill="none" stroke="gray" points="642,-566.699 642,-670.699 "/>
<path fill="none" stroke="gray" d="M642,-670.699C642,-676.699 636,-682.699 630,-682.699"/>
<polyline fill="none" stroke="gray" points="630,-682.699 584,-682.699 "/>
<path fill="none" stroke="gray" d="M584,-682.699C578,-682.699 572,-676.699 572,-670.699"/>
<polyline fill="none" stroke="gray" points="572,-670.699 572,-566.699 "/>
<path fill="none" stroke="gray" d="M572,-566.699C572,-560.699 578,-554.699 584,-554.699"/>
<text text-anchor="middle" x="607" y="-668.799" font-family="Times Roman,serif" font-size="11.00" fill="gray">Container</text>
</g>
<g id="graph14" class="cluster"><title>cluster_ChillDev\Bundle\ViewHelpersBundle\Templating\Helper</title>
<polyline fill="none" stroke="gray" points="1133,-800.699 1209,-800.699 "/>
<path fill="none" stroke="gray" d="M1209,-800.699C1215,-800.699 1221,-806.699 1221,-812.699"/>
<polyline fill="none" stroke="gray" points="1221,-812.699 1221,-1348.7 "/>
<path fill="none" stroke="gray" d="M1221,-1348.7C1221,-1354.7 1215,-1360.7 1209,-1360.7"/>
<polyline fill="none" stroke="gray" points="1209,-1360.7 1133,-1360.7 "/>
<path fill="none" stroke="gray" d="M1133,-1360.7C1127,-1360.7 1121,-1354.7 1121,-1348.7"/>
<polyline fill="none" stroke="gray" points="1121,-1348.7 1121,-812.699 "/>
<path fill="none" stroke="gray" d="M1121,-812.699C1121,-806.699 1127,-800.699 1133,-800.699"/>
<text text-anchor="middle" x="1171" y="-1346.8" font-family="Times Roman,serif" font-size="11.00" fill="gray">Helper</text>
</g>
<g id="graph15" class="cluster"><title>cluster_ChillDev\Bundle\ViewHelpersBundle\Templating\Link</title>
<polyline fill="none" stroke="gray" points="1143,-718.699 1199,-718.699 "/>
<path fill="none" stroke="gray" d="M1199,-718.699C1205,-718.699 1211,-724.699 1211,-730.699"/>
<polyline fill="none" stroke="gray" points="1211,-730.699 1211,-780.699 "/>
<path fill="none" stroke="gray" d="M1211,-780.699C1211,-786.699 1205,-792.699 1199,-792.699"/>
<polyline fill="none" stroke="gray" points="1199,-792.699 1143,-792.699 "/>
<path fill="none" stroke="gray" d="M1143,-792.699C1137,-792.699 1131,-786.699 1131,-780.699"/>
<polyline fill="none" stroke="gray" points="1131,-780.699 1131,-730.699 "/>
<path fill="none" stroke="gray" d="M1131,-730.699C1131,-724.699 1137,-718.699 1143,-718.699"/>
<text text-anchor="middle" x="1171" y="-778.799" font-family="Times Roman,serif" font-size="11.00" fill="gray">Link</text>
</g>
<g id="graph16" class="cluster"><title>cluster_ChillDev\Bundle\ViewHelpersBundle\Templating\Script</title>
<polyline fill="none" stroke="gray" points="1143,-636.699 1199,-636.699 "/>
<path fill="none" stroke="gray" d="M1199,-636.699C1205,-636.699 1211,-642.699 1211,-648.699"/>
<polyline fill="none" stroke="gray" points="1211,-648.699 1211,-698.699 "/>
<path fill="none" stroke="gray" d="M1211,-698.699C1211,-704.699 1205,-710.699 1199,-710.699"/>
<polyline fill="none" stroke="gray" points="1199,-710.699 1143,-710.699 "/>
<path fill="none" stroke="gray" d="M1143,-710.699C1137,-710.699 1131,-704.699 1131,-698.699"/>
<polyline fill="none" stroke="gray" points="1131,-698.699 1131,-648.699 "/>
<path fill="none" stroke="gray" d="M1131,-648.699C1131,-642.699 1137,-636.699 1143,-636.699"/>
<text text-anchor="middle" x="1171" y="-696.799" font-family="Times Roman,serif" font-size="11.00" fill="gray">Script</text>
</g>
<g id="graph17" class="cluster"><title>cluster_ChillDev\Bundle\ViewHelpersBundle\Templating\Xhtml</title>
<polyline fill="none" stroke="gray" points="1143,-554.699 1199,-554.699 "/>
<path fill="none" stroke="gray" d="M1199,-554.699C1205,-554.699 1211,-560.699 1211,-566.699"/>
<polyline fill="none" stroke="gray" points="1211,-566.699 1211,-616.699 "/>
<path fill="none" stroke="gray" d="M1211,-616.699C1211,-622.699 1205,-628.699 1199,-628.699"/>
<polyline fill="none" stroke="gray" points="1199,-628.699 1143,-628.699 "/>
<path fill="none" stroke="gray" d="M1143,-628.699C1137,-628.699 1131,-622.699 1131,-616.699"/>
<polyline fill="none" stroke="gray" points="1131,-616.699 1131,-566.699 "/>
<path fill="none" stroke="gray" d="M1131,-566.699C1131,-560.699 1137,-554.699 1143,-554.699"/>
<text text-anchor="middle" x="1171" y="-614.799" font-family="Times Roman,serif" font-size="11.00" fill="gray">Xhtml</text>
</g>
<g id="graph23" class="cluster"><title>cluster_ChillDev\Bundle\ViewHelpersBundle\Utils</title>
<polyline fill="none" stroke="gray" points="1146,-464.699 1196,-464.699 "/>
<path fill="none" stroke="gray" d="M1196,-464.699C1202,-464.699 1208,-470.699 1208,-476.699"/>
<polyline fill="none" stroke="gray" points="1208,-476.699 1208,-526.699 "/>
<path fill="none" stroke="gray" d="M1208,-526.699C1208,-532.699 1202,-538.699 1196,-538.699"/>
<polyline fill="none" stroke="gray" points="1196,-538.699 1146,-538.699 "/>
<path fill="none" stroke="gray" d="M1146,-538.699C1140,-538.699 1134,-532.699 1134,-526.699"/>
<polyline fill="none" stroke="gray" points="1134,-526.699 1134,-476.699 "/>
<path fill="none" stroke="gray" d="M1134,-476.699C1134,-470.699 1140,-464.699 1146,-464.699"/>
<text text-anchor="middle" x="1171" y="-524.799" font-family="Times Roman,serif" font-size="11.00" fill="gray">Utils</text>
</g>
<!-- \\ChillDev\\Bundle\\ViewHelpersBundle\\DependencyInjection\\Compiler\\PathTransformersPass -->
<g id="node6" class="node"><title>\\ChillDev\\Bundle\\ViewHelpersBundle\\DependencyInjection\\Compiler\\PathTransformersPass</title>
<a xlink:href="DependencyInjection.Compiler.PathTransformersPass.html" xlink:title="PathTransformersPass" target="_parent">
<polygon fill="none" stroke="black" points="1247,-1906.7 1095,-1906.7 1095,-1870.7 1247,-1870.7 1247,-1906.7"/>
<text text-anchor="middle" x="1171" y="-1885.8" font-family="Courier,monospace" font-size="11.00">PathTransformersPass</text>
</a>
</g>
<!-- \\Symfony\\Component\\DependencyInjection\\Compiler\\CompilerPassInterface -->
<g id="node128" class="node"><title>\\Symfony\\Component\\DependencyInjection\\Compiler\\CompilerPassInterface</title>
<ellipse fill="none" stroke="black" cx="607" cy="-368.699" rx="387.939" ry="18"/>
<text text-anchor="middle" x="607" y="-364.599" font-family="Times Roman,serif" font-size="14.00" fill="gray">\\Symfony\\Component\\DependencyInjection\\Compiler\\CompilerPassInterface</text>
</g>
<!-- \\ChillDev\\Bundle\\ViewHelpersBundle\\DependencyInjection\\Compiler\\PathTransformersPass&#45;&gt;\\Symfony\\Component\\DependencyInjection\\Compiler\\CompilerPassInterface -->
<g id="edge112" class="edge"><title>\\ChillDev\\Bundle\\ViewHelpersBundle\\DependencyInjection\\Compiler\\PathTransformersPass&#45;&gt;\\Symfony\\Component\\DependencyInjection\\Compiler\\CompilerPassInterface</title>
<path fill="none" stroke="black" stroke-dasharray="1,5" d="M1094.87,-1887.3C1081.53,-1883.56 1069.05,-1877.19 1060,-1866.7 964.368,-1755.86 1077.56,-672.272 996,-550.699 933.479,-457.501 810.004,-410.98 718.864,-388.465"/>
<polygon fill="none" stroke="black" points="719.576,-385.037 709.035,-386.099 717.938,-391.842 719.576,-385.037"/>
</g>
<!-- \\ChillDev\\Bundle\\ViewHelpersBundle\\DependencyInjection\\Configuration -->
<g id="node7" class="node"><title>\\ChillDev\\Bundle\\ViewHelpersBundle\\DependencyInjection\\Configuration</title>
<a xlink:href="DependencyInjection.Configuration.html" xlink:title="Configuration" target="_parent">
<polygon fill="none" stroke="black" points="1223,-1852.7 1119,-1852.7 1119,-1816.7 1223,-1816.7 1223,-1852.7"/>
<text text-anchor="middle" x="1171" y="-1831.8" font-family="Courier,monospace" font-size="11.00">Configuration</text>
</a>
</g>
<!-- \\Symfony\\Component\\Config\\Definition\\ConfigurationInterface -->
<g id="node126" class="node"><title>\\Symfony\\Component\\Config\\Definition\\ConfigurationInterface</title>
<ellipse fill="none" stroke="black" cx="607" cy="-314.699" rx="324.01" ry="18"/>
<text text-anchor="middle" x="607" y="-310.599" font-family="Times Roman,serif" font-size="14.00" fill="gray">\\Symfony\\Component\\Config\\Definition\\ConfigurationInterface</text>
</g>
<!-- \\ChillDev\\Bundle\\ViewHelpersBundle\\DependencyInjection\\Configuration&#45;&gt;\\Symfony\\Component\\Config\\Definition\\ConfigurationInterface -->
<g id="edge110" class="edge"><title>\\ChillDev\\Bundle\\ViewHelpersBundle\\DependencyInjection\\Configuration&#45;&gt;\\Symfony\\Component\\Config\\Definition\\ConfigurationInterface</title>
<path fill="none" stroke="black" stroke-dasharray="1,5" d="M1118.82,-1835.01C1097.32,-1832.24 1074.17,-1824.94 1060,-1807.7 956.48,-1681.73 1109.8,-458.458 996,-341.699 985.259,-330.678 966.063,-322.72 941.756,-317.085"/>
<polygon fill="none" stroke="black" points="942.323,-313.628 931.813,-314.962 940.862,-320.473 942.323,-313.628"/>
</g>
<!-- \\ChillDev\\Bundle\\ViewHelpersBundle\\DependencyInjection\\ChillDevViewHelpersExtension -->
<g id="node8" class="node"><title>\\ChillDev\\Bundle\\ViewHelpersBundle\\DependencyInjection\\ChillDevViewHelpersExtension</title>
<a xlink:href="DependencyInjection.ChillDevViewHelpersExtension.html" xlink:title="ChillDevViewHelpersExtension" target="_parent">
<polygon fill="none" stroke="black" points="1274,-1798.7 1068,-1798.7 1068,-1762.7 1274,-1762.7 1274,-1798.7"/>
<text text-anchor="middle" x="1171" y="-1777.8" font-family="Courier,monospace" font-size="11.00">ChillDevViewHelpersExtension</text>
</a>
</g>
<!-- \\Symfony\\Component\\HttpKernel\\DependencyInjection\\Extension -->
<g id="node108" class="node"><title>\\Symfony\\Component\\HttpKernel\\DependencyInjection\\Extension</title>
<ellipse fill="none" stroke="black" cx="607" cy="-260.699" rx="323.815" ry="18"/>
<text text-anchor="middle" x="607" y="-256.599" font-family="Times Roman,serif" font-size="14.00" fill="gray">\Symfony\Component\HttpKernel\DependencyInjection\Extension</text>
</g>
<!-- \\ChillDev\\Bundle\\ViewHelpersBundle\\DependencyInjection\\ChillDevViewHelpersExtension&#45;&gt;\\Symfony\\Component\\HttpKernel\\DependencyInjection\\Extension -->
<g id="edge82" class="edge"><title>\\ChillDev\\Bundle\\ViewHelpersBundle\\DependencyInjection\\ChillDevViewHelpersExtension&#45;&gt;\\Symfony\\Component\\HttpKernel\\DependencyInjection\\Extension</title>
<path fill="none" stroke="black" d="M1072.49,-1762.42C1067.84,-1759.1 1063.62,-1755.22 1060,-1750.7 958.287,-1623.7 1109.57,-404.215 996,-287.699 985.206,-276.625 965.876,-268.644 941.4,-263.004"/>
<polygon fill="none" stroke="black" points="941.898,-259.532 931.389,-260.88 940.445,-266.38 941.898,-259.532"/>
</g>
<!-- \\ChillDev\\Bundle\\ViewHelpersBundle\\EventListener\\XhtmlResponseListener -->
<g id="node11" class="node"><title>\\ChillDev\\Bundle\\ViewHelpersBundle\\EventListener\\XhtmlResponseListener</title>
<a xlink:href="EventListener.XhtmlResponseListener.html" xlink:title="XhtmlResponseListener" target="_parent">
<polygon fill="none" stroke="black" points="1250,-1716.7 1092,-1716.7 1092,-1680.7 1250,-1680.7 1250,-1716.7"/>
<text text-anchor="middle" x="1171" y="-1695.8" font-family="Courier,monospace" font-size="11.00">XhtmlResponseListener</text>
</a>
</g>
<!-- \\ChillDev\\Bundle\\ViewHelpersBundle\\PathResolver\\Transformer\\RequestTransformer -->
<g id="node14" class="node"><title>\\ChillDev\\Bundle\\ViewHelpersBundle\\PathResolver\\Transformer\\RequestTransformer</title>
<a xlink:href="PathResolver.Transformer.RequestTransformer.html" xlink:title="RequestTransformer" target="_parent">
<polygon fill="none" stroke="black" points="1240,-1550.7 1102,-1550.7 1102,-1514.7 1240,-1514.7 1240,-1550.7"/>
<text text-anchor="middle" x="1171" y="-1529.8" font-family="Courier,monospace" font-size="11.00">RequestTransformer</text>
</a>
</g>
<!-- \\ChillDev\\Bundle\\ViewHelpersBundle\\PathResolver\\Transformer\\TransformerInterface -->
<g id="node15" class="node"><title>\\ChillDev\\Bundle\\ViewHelpersBundle\\PathResolver\\Transformer\\TransformerInterface</title>
<a xlink:href="PathResolver.Transformer.TransformerInterface.html" xlink:title="TransformerInterface" target="_parent">
<polygon fill="none" stroke="black" points="683,-1550.7 531,-1550.7 531,-1514.7 683,-1514.7 683,-1550.7"/>
<text text-anchor="middle" x="607" y="-1529.8" font-family="Courier,monospace" font-size="11.00">TransformerInterface</text>
</a>
</g>
<!-- \\ChillDev\\Bundle\\ViewHelpersBundle\\PathResolver\\Transformer\\RequestTransformer&#45;&gt;\\ChillDev\\Bundle\\ViewHelpersBundle\\PathResolver\\Transformer\\TransformerInterface -->
<g id="edge122" class="edge"><title>\\ChillDev\\Bundle\\ViewHelpersBundle\\PathResolver\\Transformer\\RequestTransformer&#45;&gt;\\ChillDev\\Bundle\\ViewHelpersBundle\\PathResolver\\Transformer\\TransformerInterface</title>
<path fill="none" stroke="black" stroke-dasharray="1,5" d="M1101.84,-1532.7C998.869,-1532.7 805.374,-1532.7 693.282,-1532.7"/>
<polygon fill="none" stroke="black" points="693.027,-1529.2 683.027,-1532.7 693.027,-1536.2 693.027,-1529.2"/>
</g>
<!-- \\ChillDev\\Bundle\\ViewHelpersBundle\\PathResolver\\Transformer\\CustomTransformer -->
<g id="node16" class="node"><title>\\ChillDev\\Bundle\\ViewHelpersBundle\\PathResolver\\Transformer\\CustomTransformer</title>
<a xlink:href="PathResolver.Transformer.CustomTransformer.html" xlink:title="CustomTransformer" target="_parent">
<polygon fill="none" stroke="black" points="1236,-1496.7 1106,-1496.7 1106,-1460.7 1236,-1460.7 1236,-1496.7"/>
<text text-anchor="middle" x="1171" y="-1475.8" font-family="Courier,monospace" font-size="11.00">CustomTransformer</text>
</a>
</g>
<!-- \\ChillDev\\Bundle\\ViewHelpersBundle\\PathResolver\\Transformer\\CustomTransformer&#45;&gt;\\ChillDev\\Bundle\\ViewHelpersBundle\\PathResolver\\Transformer\\TransformerInterface -->
<g id="edge124" class="edge"><title>\\ChillDev\\Bundle\\ViewHelpersBundle\\PathResolver\\Transformer\\CustomTransformer&#45;&gt;\\ChillDev\\Bundle\\ViewHelpersBundle\\PathResolver\\Transformer\\TransformerInterface</title>
<path fill="none" stroke="black" stroke-dasharray="1,5" d="M1105.47,-1484.97C1003.47,-1494.74 806.686,-1513.58 693.264,-1524.44"/>
<polygon fill="none" stroke="black" points="692.848,-1520.96 683.227,-1525.4 693.515,-1527.93 692.848,-1520.96"/>
</g>
<!-- \\ChillDev\\Bundle\\ViewHelpersBundle\\PathResolver\\Transformer\\AssetsTransformer -->
<g id="node17" class="node"><title>\\ChillDev\\Bundle\\ViewHelpersBundle\\PathResolver\\Transformer\\AssetsTransformer</title>
<a xlink:href="PathResolver.Transformer.AssetsTransformer.html" xlink:title="AssetsTransformer" target="_parent">
<polygon fill="none" stroke="black" points="1236,-1604.7 1106,-1604.7 1106,-1568.7 1236,-1568.7 1236,-1604.7"/>
<text text-anchor="middle" x="1171" y="-1583.8" font-family="Courier,monospace" font-size="11.00">AssetsTransformer</text>
</a>
</g>
<!-- \\ChillDev\\Bundle\\ViewHelpersBundle\\PathResolver\\Transformer\\AssetsTransformer&#45;&gt;\\ChillDev\\Bundle\\ViewHelpersBundle\\PathResolver\\Transformer\\TransformerInterface -->
<g id="edge126" class="edge"><title>\\ChillDev\\Bundle\\ViewHelpersBundle\\PathResolver\\Transformer\\AssetsTransformer&#45;&gt;\\ChillDev\\Bundle\\ViewHelpersBundle\\PathResolver\\Transformer\\TransformerInterface</title>
<path fill="none" stroke="black" stroke-dasharray="1,5" d="M1105.47,-1580.42C1003.47,-1570.66 806.686,-1551.82 693.264,-1540.96"/>
<polygon fill="none" stroke="black" points="693.515,-1537.47 683.227,-1540 692.848,-1544.43 693.515,-1537.47"/>
</g>
<!-- \\ChillDev\\Bundle\\ViewHelpersBundle\\PathResolver\\PathResolver -->
<g id="node18" class="node"><title>\\ChillDev\\Bundle\\ViewHelpersBundle\\PathResolver\\PathResolver</title>
<a xlink:href="PathResolver.PathResolver.html" xlink:title="PathResolver" target="_parent">
<polygon fill="none" stroke="black" points="1220,-1442.7 1122,-1442.7 1122,-1406.7 1220,-1406.7 1220,-1442.7"/>
<text text-anchor="middle" x="1171" y="-1421.8" font-family="Courier,monospace" font-size="11.00">PathResolver</text>
</a>
</g>
<!-- \\ChillDev\\Bundle\\ViewHelpersBundle\\Templating\\Container\\Meta -->
<g id="node22" class="node"><title>\\ChillDev\\Bundle\\ViewHelpersBundle\\Templating\\Container\\Meta</title>
<a xlink:href="Templating.Container.Meta.html" xlink:title="Meta" target="_parent">
<polygon fill="none" stroke="black" points="634,-652.699 580,-652.699 580,-616.699 634,-616.699 634,-652.699"/>
<text text-anchor="middle" x="607" y="-631.799" font-family="Courier,monospace" font-size="11.00">Meta</text>
</a>
</g>
<!-- \\ArrayObject -->
<g id="node112" class="node"><title>\\ArrayObject</title>
<ellipse fill="none" stroke="black" cx="73" cy="-370.699" rx="71.7694" ry="18"/>
<text text-anchor="middle" x="73" y="-366.599" font-family="Times Roman,serif" font-size="14.00" fill="gray">\ArrayObject</text>
</g>
<!-- \\ChillDev\\Bundle\\ViewHelpersBundle\\Templating\\Container\\Meta&#45;&gt;\\ArrayObject -->
<g id="edge86" class="edge"><title>\\ChillDev\\Bundle\\ViewHelpersBundle\\Templating\\Container\\Meta&#45;&gt;\\ArrayObject</title>
<path fill="none" stroke="black" d="M579.983,-640.679C512.98,-653.954 336.058,-679.354 218,-607.699 138.724,-559.582 96.7407,-450.069 80.748,-398.515"/>
<polygon fill="none" stroke="black" points="84.0363,-397.295 77.809,-388.724 77.3318,-399.308 84.0363,-397.295"/>
</g>
<!-- \\ChillDev\\Bundle\\ViewHelpersBundle\\Templating\\Container\\Words -->
<g id="node23" class="node"><title>\\ChillDev\\Bundle\\ViewHelpersBundle\\Templating\\Container\\Words</title>
<a xlink:href="Templating.Container.Words.html" xlink:title="Words" target="_parent">
<polygon fill="none" stroke="black" points="634,-598.699 580,-598.699 580,-562.699 634,-562.699 634,-598.699"/>
<text text-anchor="middle" x="607" y="-577.799" font-family="Courier,monospace" font-size="11.00">Words</text>
</a>
</g>
<!-- \\ChillDev\\Bundle\\ViewHelpersBundle\\Templating\\Container\\Words&#45;&gt;\\ArrayObject -->
<g id="edge88" class="edge"><title>\\ChillDev\\Bundle\\ViewHelpersBundle\\Templating\\Container\\Words&#45;&gt;\\ArrayObject</title>
<path fill="none" stroke="black" d="M579.993,-586.402C513.753,-598.93 339.768,-622.893 218,-558.699 150.683,-523.211 105.048,-441.132 84.8322,-398.12"/>
<polygon fill="none" stroke="black" points="87.9191,-396.454 80.5727,-388.82 81.5549,-399.369 87.9191,-396.454"/>
</g>
<!-- \\ChillDev\\Bundle\\ViewHelpersBundle\\Templating\\Helper\\Xhtml -->
<g id="node25" class="node"><title>\\ChillDev\\Bundle\\ViewHelpersBundle\\Templating\\Helper\\Xhtml</title>
<a xlink:href="Templating.Helper.Xhtml.html" xlink:title="Xhtml" target="_parent">
<polygon fill="none" stroke="black" points="1198,-1114.7 1144,-1114.7 1144,-1078.7 1198,-1078.7 1198,-1114.7"/>
<text text-anchor="middle" x="1171" y="-1093.8" font-family="Courier,monospace" font-size="11.00">Xhtml</text>
</a>
</g>
<!-- \\Symfony\\Component\\Templating\\Helper\\Helper -->
<g id="node115" class="node"><title>\\Symfony\\Component\\Templating\\Helper\\Helper</title>
<ellipse fill="none" stroke="black" cx="607" cy="-206.699" rx="239.04" ry="18"/>
<text text-anchor="middle" x="607" y="-202.599" font-family="Times Roman,serif" font-size="14.00" fill="gray">\Symfony\Component\Templating\Helper\Helper</text>
</g>
<!-- \\ChillDev\\Bundle\\ViewHelpersBundle\\Templating\\Helper\\Xhtml&#45;&gt;\\Symfony\\Component\\Templating\\Helper\\Helper -->
<g id="edge90" class="edge"><title>\\ChillDev\\Bundle\\ViewHelpersBundle\\Templating\\Helper\\Xhtml&#45;&gt;\\Symfony\\Component\\Templating\\Helper\\Helper</title>
<path fill="none" stroke="black" d="M1143.57,-1098.36C1117.82,-1098.27 1080.29,-1093.58 1060,-1069.7 939.357,-927.709 1128.22,-364.979 996,-233.699 970.168,-208.05 897.387,-199.186 821.663,-197.531"/>
<polygon fill="none" stroke="black" points="821.509,-194.028 811.449,-197.351 821.386,-201.027 821.509,-194.028"/>
</g>
<!-- \\ChillDev\\Bundle\\ViewHelpersBundle\\Templating\\Helper\\Serializer -->
<g id="node26" class="node"><title>\\ChillDev\\Bundle\\ViewHelpersBundle\\Templating\\Helper\\Serializer</title>
<a xlink:href="Templating.Helper.Serializer.html" xlink:title="Serializer" target="_parent">
<polygon fill="none" stroke="black" points="1213,-1006.7 1129,-1006.7 1129,-970.699 1213,-970.699 1213,-1006.7"/>
<text text-anchor="middle" x="1171" y="-985.799" font-family="Courier,monospace" font-size="11.00">Serializer</text>
</a>
</g>
<!-- \\ChillDev\\Bundle\\ViewHelpersBundle\\Templating\\Helper\\Serializer&#45;&gt;\\Symfony\\Component\\Templating\\Helper\\Helper -->
<g id="edge92" class="edge"><title>\\ChillDev\\Bundle\\ViewHelpersBundle\\Templating\\Helper\\Serializer&#45;&gt;\\Symfony\\Component\\Templating\\Helper\\Helper</title>
<path fill="none" stroke="black" d="M1128.74,-989.704C1104.95,-987.858 1076.74,-981.177 1060,-961.699 954.149,-838.533 1111.89,-347.473 996,-233.699 970.168,-208.338 898.028,-199.454 822.78,-197.707"/>
<polygon fill="none" stroke="black" points="822.694,-194.205 812.63,-197.514 822.561,-201.204 822.694,-194.205"/>
</g>
<!-- \\ChillDev\\Bundle\\ViewHelpersBundle\\Templating\\Helper\\Link -->
<g id="node27" class="node"><title>\\ChillDev\\Bundle\\ViewHelpersBundle\\Templating\\Helper\\Link</title>
<a xlink:href="Templating.Helper.Link.html" xlink:title="Link" target="_parent">
<polygon fill="none" stroke="black" points="1198,-952.699 1144,-952.699 1144,-916.699 1198,-916.699 1198,-952.699"/>
<text text-anchor="middle" x="1171" y="-931.799" font-family="Courier,monospace" font-size="11.00">Link</text>
</a>
</g>
<!-- \\ChillDev\\Bundle\\ViewHelpersBundle\\Templating\\Helper\\Link&#45;&gt;\\ArrayObject -->
<g id="edge94" class="edge"><title>\\ChillDev\\Bundle\\ViewHelpersBundle\\Templating\\Helper\\Link&#45;&gt;\\ArrayObject</title>
<path fill="none" stroke="black" d="M1143.63,-936.306C1117.92,-936.179 1080.42,-931.464 1060,-907.699 954.149,-784.533 1115.76,-289.391 996,-179.699 932.254,-121.311 295.431,-141.265 218,-179.699 148.661,-214.116 103.553,-299.297 84.0566,-343.344"/>
<polygon fill="none" stroke="black" points="80.8146,-342.024 80.0731,-352.593 87.2436,-344.793 80.8146,-342.024"/>
</g>
<!-- \\Symfony\\Component\\Templating\\Helper\\HelperInterface -->
<g id="node130" class="node"><title>\\Symfony\\Component\\Templating\\Helper\\HelperInterface</title>
<ellipse fill="none" stroke="black" cx="607" cy="-114.699" rx="296.91" ry="18"/>
<text text-anchor="middle" x="607" y="-110.599" font-family="Times Roman,serif" font-size="14.00" fill="gray">\\Symfony\\Component\\Templating\\Helper\\HelperInterface</text>
</g>
<!-- \\ChillDev\\Bundle\\ViewHelpersBundle\\Templating\\Helper\\Link&#45;&gt;\\Symfony\\Component\\Templating\\Helper\\HelperInterface -->
<g id="edge114" class="edge"><title>\\ChillDev\\Bundle\\ViewHelpersBundle\\Templating\\Helper\\Link&#45;&gt;\\Symfony\\Component\\Templating\\Helper\\HelperInterface</title>
<path fill="none" stroke="black" stroke-dasharray="1,5" d="M1143.61,-936.323C1117.88,-936.208 1080.38,-931.502 1060,-907.699 949.63,-778.782 1116.11,-266.591 996,-146.699 981.362,-132.087 951.585,-122.624 914.723,-116.686"/>
<polygon fill="none" stroke="black" points="915.086,-113.201 904.677,-115.177 914.046,-120.123 915.086,-113.201"/>
</g>
<!-- \\ChillDev\\Bundle\\ViewHelpersBundle\\Templating\\Helper\\Meta -->
<g id="node28" class="node"><title>\\ChillDev\\Bundle\\ViewHelpersBundle\\Templating\\Helper\\Meta</title>
<a xlink:href="Templating.Helper.Meta.html" xlink:title="Meta" target="_parent">
<polygon fill="none" stroke="black" points="1198,-1060.7 1144,-1060.7 1144,-1024.7 1198,-1024.7 1198,-1060.7"/>
<text text-anchor="middle" x="1171" y="-1039.8" font-family="Courier,monospace" font-size="11.00">Meta</text>
</a>
</g>
<!-- \\ChillDev\\Bundle\\ViewHelpersBundle\\Templating\\Helper\\Meta&#45;&gt;\\Symfony\\Component\\Templating\\Helper\\Helper -->
<g id="edge96" class="edge"><title>\\ChillDev\\Bundle\\ViewHelpersBundle\\Templating\\Helper\\Meta&#45;&gt;\\Symfony\\Component\\Templating\\Helper\\Helper</title>
<path fill="none" stroke="black" d="M1143.6,-1044.33C1117.86,-1044.23 1080.35,-1039.53 1060,-1015.7 946.754,-883.123 1120.05,-356.225 996,-233.699 970.158,-208.174 897.632,-199.304 822.1,-197.611"/>
<polygon fill="none" stroke="black" points="821.974,-194.108 811.912,-197.425 821.847,-201.107 821.974,-194.108"/>
</g>
<!-- \\ChillDev\\Bundle\\ViewHelpersBundle\\Templating\\Helper\\Script -->
<g id="node29" class="node"><title>\\ChillDev\\Bundle\\ViewHelpersBundle\\Templating\\Helper\\Script</title>
<a xlink:href="Templating.Helper.Script.html" xlink:title="Script" target="_parent">
<polygon fill="none" stroke="black" points="1199,-898.699 1143,-898.699 1143,-862.699 1199,-862.699 1199,-898.699"/>
<text text-anchor="middle" x="1171" y="-877.799" font-family="Courier,monospace" font-size="11.00">Script</text>
</a>
</g>
<!-- \\ChillDev\\Bundle\\ViewHelpersBundle\\Templating\\Helper\\Script&#45;&gt;\\ArrayObject -->
<g id="edge98" class="edge"><title>\\ChillDev\\Bundle\\ViewHelpersBundle\\Templating\\Helper\\Script&#45;&gt;\\ArrayObject</title>
<path fill="none" stroke="black" d="M1142.13,-882.314C1116.46,-882.027 1079.99,-877.056 1060,-853.699 948.946,-723.911 1118.85,-206.379 996,-87.6987 933.754,-27.5667 691.526,-87.2937 607,-68.6987"/>
</g>
<!-- \\ChillDev\\Bundle\\ViewHelpersBundle\\Templating\\Helper\\Script&#45;&gt;\\Symfony\\Component\\Templating\\Helper\\HelperInterface -->
<g id="edge116" class="edge"><title>\\ChillDev\\Bundle\\ViewHelpersBundle\\Templating\\Helper\\Script&#45;&gt;\\Symfony\\Component\\Templating\\Helper\\HelperInterface</title>
<path fill="none" stroke="black" stroke-dasharray="1,5" d="M1142.17,-882.281C1116.53,-881.972 1080.07,-876.987 1060,-853.699 957.024,-734.191 1108,-257.789 996,-146.699 981.315,-132.134 951.515,-122.695 914.642,-116.767"/>
<polygon fill="none" stroke="black" points="915.002,-113.282 904.593,-115.261 913.964,-120.205 915.002,-113.282"/>
</g>
<!-- \\ChillDev\\Bundle\\ViewHelpersBundle\\Templating\\Helper\\Formatter -->
<g id="node30" class="node"><title>\\ChillDev\\Bundle\\ViewHelpersBundle\\Templating\\Helper\\Formatter</title>
<a xlink:href="Templating.Helper.Formatter.html" xlink:title="Formatter" target="_parent">
<polygon fill="none" stroke="black" points="1209,-1330.7 1133,-1330.7 1133,-1294.7 1209,-1294.7 1209,-1330.7"/>
<text text-anchor="middle" x="1171" y="-1309.8" font-family="Courier,monospace" font-size="11.00">Formatter</text>
</a>
</g>
<!-- \\ChillDev\\Bundle\\ViewHelpersBundle\\Templating\\Helper\\Formatter&#45;&gt;\\Symfony\\Component\\Templating\\Helper\\Helper -->
<g id="edge100" class="edge"><title>\\ChillDev\\Bundle\\ViewHelpersBundle\\Templating\\Helper\\Formatter&#45;&gt;\\Symfony\\Component\\Templating\\Helper\\Helper</title>
<path fill="none" stroke="black" d="M1132.37,-1314.12C1107.77,-1312.76 1077.37,-1306.47 1060,-1285.7 909.75,-1106.03 1160.9,-400.015 996,-233.699 970.141,-207.618 896.322,-198.795 819.843,-197.286"/>
<polygon fill="none" stroke="black" points="819.583,-193.782 809.529,-197.126 819.474,-200.781 819.583,-193.782"/>
</g>
<!-- \\ChillDev\\Bundle\\ViewHelpersBundle\\Templating\\Helper\\Title -->
<g id="node31" class="node"><title>\\ChillDev\\Bundle\\ViewHelpersBundle\\Templating\\Helper\\Title</title>
<a xlink:href="Templating.Helper.Title.html" xlink:title="Title" target="_parent">
<polygon fill="none" stroke="black" points="1198,-1276.7 1144,-1276.7 1144,-1240.7 1198,-1240.7 1198,-1276.7"/>
<text text-anchor="middle" x="1171" y="-1255.8" font-family="Courier,monospace" font-size="11.00">Title</text>
</a>
</g>
<!-- \\ChillDev\\Bundle\\ViewHelpersBundle\\Templating\\Helper\\Title&#45;&gt;\\ChillDev\\Bundle\\ViewHelpersBundle\\Templating\\Container\\Words -->
<g id="edge102" class="edge"><title>\\ChillDev\\Bundle\\ViewHelpersBundle\\Templating\\Helper\\Title&#45;&gt;\\ChillDev\\Bundle\\ViewHelpersBundle\\Templating\\Container\\Words</title>
<path fill="none" stroke="black" d="M1143.71,-1260.24C1118.05,-1260.06 1080.6,-1255.31 1060,-1231.7 968.38,-1126.64 1096.17,-704.63 996,-607.699 946.679,-559.975 731.465,-570.91 644.079,-577.524"/>
<polygon fill="none" stroke="black" points="643.773,-574.037 634.076,-578.304 644.318,-581.016 643.773,-574.037"/>
</g>
<!-- \\ChillDev\\Bundle\\ViewHelpersBundle\\Templating\\Helper\\Title&#45;&gt;\\Symfony\\Component\\Templating\\Helper\\HelperInterface -->
<g id="edge118" class="edge"><title>\\ChillDev\\Bundle\\ViewHelpersBundle\\Templating\\Helper\\Title&#45;&gt;\\Symfony\\Component\\Templating\\Helper\\HelperInterface</title>
<path fill="none" stroke="black" stroke-dasharray="1,5" d="M1143.98,-1260.43C1118.15,-1260.45 1080.23,-1255.89 1060,-1231.7 909.75,-1052.03 1152.71,-353.757 996,-179.699 935.687,-112.708 834.533,-97.4282 750.493,-98.3901"/>
<polygon fill="none" stroke="black" points="750.264,-94.8937 740.333,-98.5855 750.399,-101.892 750.264,-94.8937"/>
</g>
<!-- \\ChillDev\\Bundle\\ViewHelpersBundle\\Templating\\Helper\\Standalone -->
<g id="node32" class="node"><title>\\ChillDev\\Bundle\\ViewHelpersBundle\\Templating\\Helper\\Standalone</title>
<a xlink:href="Templating.Helper.Standalone.html" xlink:title="Standalone" target="_parent">
<polygon fill="none" stroke="black" points="1213,-1168.7 1129,-1168.7 1129,-1132.7 1213,-1132.7 1213,-1168.7"/>
<text text-anchor="middle" x="1171" y="-1147.8" font-family="Courier,monospace" font-size="11.00">Standalone</text>
</a>
</g>
<!-- \\ChillDev\\Bundle\\ViewHelpersBundle\\Templating\\Helper\\Standalone&#45;&gt;\\Symfony\\Component\\Templating\\Helper\\Helper -->
<g id="edge104" class="edge"><title>\\ChillDev\\Bundle\\ViewHelpersBundle\\Templating\\Helper\\Standalone&#45;&gt;\\Symfony\\Component\\Templating\\Helper\\Helper</title>
<path fill="none" stroke="black" d="M1128.9,-1151.82C1105.01,-1150.04 1076.65,-1143.39 1060,-1123.7 931.958,-972.293 1136.39,-373.735 996,-233.699 970.141,-207.904 896.969,-199.058 820.964,-197.455"/>
<polygon fill="none" stroke="black" points="820.771,-193.951 810.714,-197.282 820.653,-200.95 820.771,-193.951"/>
</g>
<!-- \\ChillDev\\Bundle\\ViewHelpersBundle\\Templating\\Helper\\Paginator -->
<g id="node33" class="node"><title>\\ChillDev\\Bundle\\ViewHelpersBundle\\Templating\\Helper\\Paginator</title>
<a xlink:href="Templating.Helper.Paginator.html" xlink:title="Paginator" target="_parent">
<polygon fill="none" stroke="black" points="1209,-1222.7 1133,-1222.7 1133,-1186.7 1209,-1186.7 1209,-1222.7"/>
<text text-anchor="middle" x="1171" y="-1201.8" font-family="Courier,monospace" font-size="11.00">Paginator</text>
</a>
</g>
<!-- \\ChillDev\\Bundle\\ViewHelpersBundle\\Templating\\Helper\\Paginator&#45;&gt;\\Symfony\\Component\\Templating\\Helper\\Helper -->
<g id="edge106" class="edge"><title>\\ChillDev\\Bundle\\ViewHelpersBundle\\Templating\\Helper\\Paginator&#45;&gt;\\Symfony\\Component\\Templating\\Helper\\Helper</title>
<path fill="none" stroke="black" d="M1132.42,-1206.08C1107.84,-1204.71 1077.44,-1198.41 1060,-1177.7 924.557,-1016.88 1144.56,-382.494 996,-233.699 970.137,-207.794 896.706,-198.957 820.512,-197.391"/>
<polygon fill="none" stroke="black" points="820.292,-193.887 810.236,-197.223 820.177,-200.886 820.292,-193.887"/>
</g>
<!-- \\ChillDev\\Bundle\\ViewHelpersBundle\\Templating\\Helper\\Xmlns -->
<g id="node34" class="node"><title>\\ChillDev\\Bundle\\ViewHelpersBundle\\Templating\\Helper\\Xmlns</title>
<a xlink:href="Templating.Helper.Xmlns.html" xlink:title="Xmlns" target="_parent">
<polygon fill="none" stroke="black" points="1198,-844.699 1144,-844.699 1144,-808.699 1198,-808.699 1198,-844.699"/>
<text text-anchor="middle" x="1171" y="-823.799" font-family="Courier,monospace" font-size="11.00">Xmlns</text>
</a>
</g>
<!-- \\ChillDev\\Bundle\\ViewHelpersBundle\\Templating\\Helper\\Xmlns&#45;&gt;\\ArrayObject -->
<g id="edge108" class="edge"><title>\\ChillDev\\Bundle\\ViewHelpersBundle\\Templating\\Helper\\Xmlns&#45;&gt;\\ArrayObject</title>
<path fill="none" stroke="black" d="M1143.57,-827.495C1117.81,-826.62 1080.28,-820.854 1060,-796.699 958.278,-675.544 1110.14,-197.231 996,-87.6987 933.553,-27.7745 691.526,-87.2937 607,-68.6987"/>
<path fill="none" stroke="black" d="M607,-68.6987C522.474,-50.1037 290.721,-40.7726 218,-87.6987 126.296,-146.874 89.7554,-283.425 77.8676,-342.555"/>
<polygon fill="none" stroke="black" points="74.3761,-342.178 75.9271,-352.659 81.2505,-343.499 74.3761,-342.178"/>
</g>
<!-- \\ChillDev\\Bundle\\ViewHelpersBundle\\Templating\\Helper\\Xmlns&#45;&gt;\\Symfony\\Component\\Templating\\Helper\\HelperInterface -->
<g id="edge120" class="edge"><title>\\ChillDev\\Bundle\\ViewHelpersBundle\\Templating\\Helper\\Xmlns&#45;&gt;\\Symfony\\Component\\Templating\\Helper\\HelperInterface</title>
<path fill="none" stroke="black" stroke-dasharray="1,5" d="M1143.61,-827.459C1117.88,-826.557 1080.38,-820.771 1060,-796.699 966.22,-685.92 1099.45,-248.502 996,-146.699 914.846,-66.8382 772.645,-78.0246 684.493,-95.1445"/>
<polygon fill="none" stroke="black" points="683.662,-91.7416 674.549,-97.1454 685.043,-98.604 683.662,-91.7416"/>
</g>
<!-- \\ChillDev\\Bundle\\ViewHelpersBundle\\Templating\\Link\\Element -->
<g id="node36" class="node"><title>\\ChillDev\\Bundle\\ViewHelpersBundle\\Templating\\Link\\Element</title>
<a xlink:href="Templating.Link.Element.html" xlink:title="Element" target="_parent">
<polygon fill="none" stroke="black" points="1203,-762.699 1139,-762.699 1139,-726.699 1203,-726.699 1203,-762.699"/>
<text text-anchor="middle" x="1171" y="-741.799" font-family="Courier,monospace" font-size="11.00">Element</text>
</a>
</g>
<!-- \\ChillDev\\Bundle\\ViewHelpersBundle\\Templating\\Script\\Element -->
<g id="node38" class="node"><title>\\ChillDev\\Bundle\\ViewHelpersBundle\\Templating\\Script\\Element</title>
<a xlink:href="Templating.Script.Element.html" xlink:title="Element" target="_parent">
<polygon fill="none" stroke="black" points="1203,-680.699 1139,-680.699 1139,-644.699 1203,-644.699 1203,-680.699"/>
<text text-anchor="middle" x="1171" y="-659.799" font-family="Courier,monospace" font-size="11.00">Element</text>
</a>
</g>
<!-- \\ChillDev\\Bundle\\ViewHelpersBundle\\Templating\\Xhtml\\Checker -->
<g id="node40" class="node"><title>\\ChillDev\\Bundle\\ViewHelpersBundle\\Templating\\Xhtml\\Checker</title>
<a xlink:href="Templating.Xhtml.Checker.html" xlink:title="Checker" target="_parent">
<polygon fill="none" stroke="black" points="1203,-598.699 1139,-598.699 1139,-562.699 1203,-562.699 1203,-598.699"/>
<text text-anchor="middle" x="1171" y="-577.799" font-family="Courier,monospace" font-size="11.00">Checker</text>
</a>
</g>
<!-- \\ChillDev\\Bundle\\ViewHelpersBundle\\Utils\\Markup -->
<g id="node47" class="node"><title>\\ChillDev\\Bundle\\ViewHelpersBundle\\Utils\\Markup</title>
<a xlink:href="Utils.Markup.html" xlink:title="Markup" target="_parent">
<polygon fill="none" stroke="black" points="1199,-508.699 1143,-508.699 1143,-472.699 1199,-472.699 1199,-508.699"/>
<text text-anchor="middle" x="1171" y="-487.799" font-family="Courier,monospace" font-size="11.00">Markup</text>
</a>
</g>
<!-- \\ChillDev\\Bundle\\ViewHelpersBundle\\ChillDevViewHelpersBundle -->
<g id="node48" class="node"><title>\\ChillDev\\Bundle\\ViewHelpersBundle\\ChillDevViewHelpersBundle</title>
<a xlink:href="ChillDevViewHelpersBundle.html" xlink:title="ChillDevViewHelpersBundle" target="_parent">
<polygon fill="none" stroke="black" points="1263,-454.699 1079,-454.699 1079,-418.699 1263,-418.699 1263,-454.699"/>
<text text-anchor="middle" x="1171" y="-433.799" font-family="Courier,monospace" font-size="11.00">ChillDevViewHelpersBundle</text>
</a>
</g>
<!-- \\Symfony\\Component\\HttpKernel\\Bundle\\Bundle -->
<g id="node110" class="node"><title>\\Symfony\\Component\\HttpKernel\\Bundle\\Bundle</title>
<ellipse fill="none" stroke="black" cx="607" cy="-22.6987" rx="242.014" ry="18"/>
<text text-anchor="middle" x="607" y="-18.5987" font-family="Times Roman,serif" font-size="14.00" fill="gray">\Symfony\Component\HttpKernel\Bundle\Bundle</text>
</g>
<!-- \\ChillDev\\Bundle\\ViewHelpersBundle\\ChillDevViewHelpersBundle&#45;&gt;\\Symfony\\Component\\HttpKernel\\Bundle\\Bundle -->
<g id="edge84" class="edge"><title>\\ChillDev\\Bundle\\ViewHelpersBundle\\ChillDevViewHelpersBundle&#45;&gt;\\Symfony\\Component\\HttpKernel\\Bundle\\Bundle</title>
<path fill="none" stroke="black" d="M1168.97,-418.261C1160.9,-354.924 1125,-145.176 996,-54.6987 912.302,4.00448 792.154,4.63089 707.586,-4.75513"/>
<polygon fill="none" stroke="black" points="706.977,-1.30253 697.454,-5.94617 707.794,-8.25466 706.977,-1.30253"/>
</g>
</g>
</svg>
